<svg width="753" height="69" viewBox="0 0 753 69" fill="none" xmlns="http://www.w3.org/2000/svg">
<path style="fill:#fff" d="M29.1 66.4C29.2 66 27.5 64.7 26.4 64.2C24.7 63.5 23 62.9 21.3 62.4L21.4 61.2C23.6 61 25.8 60.8 28 60.8C30 60.9 31.3 61.3 32.6 59.1C34.1 56.9 36.8 55.8 39.3 56.5C43.2 57.5 46.6 55.8 49.8 53.1L45 52.3L44.6 51.3L53.3 46.2C52.4 45.6 51.7 44.9 51.1 44.1C50.9 43.5 51 42.1 51.3 42C52 41.8 52.9 41.8 53.6 42C54.2 45.4 57 44.8 59.3 45.3C59.7 45.4 59.9 45.7 60.5 46.2L57.6 48V48.6C59.2 48.6 60.7 48.6 62.2 48.6C64.9 48.6 67.5 48.5 70.1 48.2C72.8 47.8 75.6 47.2 78.2 46.1C88.1 41.6 97.7 36.8 107.5 32.2C108 32 108.5 31.6 109 31.2C112.7 28.4 116.4 25.6 120.1 22.7C122.7 21.1 126 21.5 128.3 23.4C122.6 25.2 116.6 26.1 113 32.1C114.1 32.2 115.3 32.2 116.4 32.1C121.4 31.5 126.3 30.6 131.2 29.4C136.1 27.9 140.8 28.4 145.7 29C146.6 29.1 147.4 29.5 148 30.1L143.1 31.4C141.3 31.9 139.4 32.6 137.5 33C135.5 33.4 134.1 34.2 134.6 36.8C134.7 37.5 133.4 38.6 132.8 39.6C132.2 38.6 131.7 37.6 131.1 36.7C130.6 36 129.9 34.6 129.5 34.7C122.2 36.8 114.5 37.5 108 41.8C107.8 41.9 107.6 42.3 107.4 42.7L109.4 44.9L107.8 48C110.1 48 112 48.1 113.9 48C117.9 47.8 122 47.4 126 47C127.6 46.9 129.1 46.9 128.7 44.3C128.3 41.9 130.4 41.7 132.4 41.5C135.9 41.1 139.5 40.6 143 39.8C145.3 39.2 147.4 37.7 149.7 36.9C151 36.5 152.5 36.4 153.9 36.4L152.1 40.6L160.9 39.4L157.4 38.2L157.5 37.5C165.8 35.8 174 37.5 182.2 38C182.2 38.6 182.2 39.2 182.2 39.8C180.4 39.8 178.4 40.2 176.7 39.7C173.8 38.8 171.3 38.1 168.8 40.6C167.8 41.5 165.9 41.3 164.3 41.7L160 42.7C160.2 43.2 160.4 43.4 160.5 43.4C164.9 43.5 169.3 43.8 173.7 43.6C178.3 43.5 183.1 42.9 187.7 42.5C189.8 42.4 191.9 42.3 193.8 42.1L193.9 41.2L186.2 37L186.4 36.1C188.8 36.5 191.2 36.6 193.5 37.1C196.1 37.6 198.5 38.4 200.9 39.1C203.3 39.7 205.9 39.7 208 37.5C209.5 36 211.9 35.9 213.5 37.3C217.7 40.1 221.8 39.7 226.4 38.3C234.8 35.5 243.9 35.4 252.3 37.8C253.2 38 253.9 38 254.7 37.8C252 36.5 249.7 34.4 246.3 34.7C244.2 34.9 242 34 239.9 33.4C237.8 32.8 236 31.8 234 31L234.1 30C235.9 29.9 237.8 30 239.5 30.4C244.4 31.9 249.1 34.1 254.5 33.8C255 33.7 255.5 33.7 256 33.9C262.5 37.6 268.5 34.8 274.4 32.3C277.7 31 281 31.4 284.3 32.2L284.4 33.2L278.9 35L278.8 35.9C279.8 36.3 280.9 36.5 281.9 36.6C289.5 36.1 297 34.6 304.4 32.2C307.5 31.1 311 29.5 314 32.6C314.9 33.7 315.6 35 315.8 36.4C319.2 38.1 322.6 36.2 326.2 35.7C326.3 35.7 326.4 35.6 326.4 35.5C327.3 30.6 330.6 32.9 333.2 32.9C334.8 32.8 336.4 32.3 337.8 31.7C339.1 31.1 340.7 30.6 342.2 30.2C343.3 30.1 345.5 29.5 345 32.2C345 32.4 345.6 32.9 346 33.1C349.9 34.8 353.3 37.4 355.9 40.8C356.3 41.2 356.9 41.4 357.4 41.3C359.1 40.6 360.7 39.8 363.4 38.6L358.1 36.5C359.3 34.5 360.7 34.3 362.3 35.9C363.8 37.5 368.2 38.3 369.5 36.9C371.7 34.7 374.5 34.7 377.2 34.6C378.8 34.6 380.4 34.6 382 34.4C383.8 34 385.4 33.1 387.3 32.6C389.7 32 392.2 31.4 394.7 31C395.9 30.9 397 30.9 398.2 31C397.2 29.8 396.7 29.2 396.2 28.7C394.7 26.9 394 25.3 396.9 24.2C397.5 23.8 398 23.2 398.2 22.5C398.3 20.7 399.9 19.2 401.7 19.3C401.8 19.3 401.8 19.3 401.8 19.3C402.9 19.3 404.9 19.9 404.9 20.3C404.9 22 404.7 23.7 404.3 25.3C404.2 25.5 404.1 25.9 403.9 26.2C405.2 28.2 407.2 28.4 409.4 28C411.6 27.6 411.8 25.8 412.1 24C412.2 23.1 412 22 412.3 21.4C412.9 20.4 413.9 19.6 415 19.1C415.5 18.9 416.8 20 417.2 20.7C417.9 22.7 419.2 22.7 420.7 21.9C421.4 21.4 422.3 21 423.1 20.8C426.3 20.1 428.4 22.1 427.9 26.1L432.9 26.8C434.1 23.6 436.6 22.8 439.3 24.8C442.2 27 444.9 26.6 448.1 25.8C451.6 24.9 455.4 24.6 459.1 24L463.7 23.3C466.6 22.7 469.6 22.1 472.6 21.7C475 21.5 475.3 21 474.1 18.8C473.5 17.8 473.1 16.7 473 15.6C473 14.6 473.6 13.8 474.5 13.3C475.5 13.2 476.6 13.7 477.2 14.4C478.3 15.9 479.2 17.6 479.8 19.3C480.5 21.4 482.5 22.6 484.7 22.4C485.3 22.4 486.5 21.5 486.5 21.1C486.6 18.8 488.2 18.7 489.8 18.5C491.6 18.4 493.6 18.5 495.4 18.5C500.8 18.5 506.1 18.6 511.5 18.6C512.8 18.6 514.3 18.2 515.5 17.7C519.5 16.1 523.6 14.3 527.5 12.6C528 12.2 528.6 11.9 529.1 11.5L526 9.8C526.9 9.3 527.7 8.9 528.7 8.8C531.6 8.8 534.6 9 537.5 9C539 9.1 540.6 8.9 542 8.4C544.8 7.1 547.9 6.2 551 6.2C553.8 5.8 556.6 5.5 559.4 4.7C560.3 4.3 561.1 4.3 562 4.3C562.6 4.4 563.1 5.3 563.6 5.8C563.1 6.3 562.7 7 562.3 7.1C559.6 7.6 557 7.8 554.4 8.2C553.4 8.2 552.6 8.2 551.7 8.2C549.5 8.7 547.9 10.6 547.9 13C547.8 15.4 550.1 15.8 551.7 15.8C554.3 15.6 556.7 15.1 559.1 14.3C560.6 13.7 562 12.8 563.5 12C566.7 10.5 568.5 11.3 570 14.4C570.4 15 570.9 15.4 571.5 15.5C575.2 15.4 578.9 15 582.6 14.8C584.1 14.7 585.5 14.4 587 14.3L587.4 15.5C585.1 16.5 582.6 17.3 580.3 18.4C579.4 18.9 578.6 19.5 577.9 20.2C578.8 20.9 579.4 22 580.3 22.4C582.4 23 584.5 23.6 586.5 24.1C586.3 27.3 585.9 30.2 585.9 33C585.9 34.8 589.9 38.3 592.3 38.4C594 38.5 595.6 38.4 597.3 38.5C599 38.6 600.2 39 600.7 41.1C601.3 43.7 603.6 42.9 605.5 42.7C605.5 42.3 605.7 42.1 605.6 42C603.6 38.3 603.5 38.1 607.4 36.5C615.2 33.2 623.2 30.5 631.7 30.8C634.1 30.8 636.3 30.1 638.2 28.6C641.9 26.3 645.8 24.2 649.8 22.6C651.1 22 653 22.5 654.6 22.5C654.6 22.9 654.7 23.1 654.7 23.5L651.2 25.3C654.4 27.9 657.3 30.8 660.7 32.7C662.5 33.7 666.2 34.4 667.5 33.3C672.1 29.8 676.5 31.6 681.1 32.4C682.6 32.6 684.2 32.8 685.7 32.8C684 28.2 684.4 27.8 688.6 27.8C691.4 27.8 693.4 28.2 694.6 31.2C695.8 34.3 699.4 35.4 702.5 34.7C704.3 34.5 706.2 34.5 708 34.6C710.7 34.6 713.6 36.4 715.8 33.3C716.2 32.8 717.8 33.2 718.9 33.2L719.4 33.9L717.6 34.6L718.1 35.6C719.3 35.2 720.4 34.7 721.5 34C723.2 32.2 725.8 31.6 728.1 32.5L724.2 34.9L737.1 37.8L737 39C733.3 39.9 729.8 41 725.9 40.2C720.9 39.2 715.9 38.4 710.9 37.5C707.4 36.9 703.9 36.5 700.4 36.2C699.5 36.1 698.7 36.2 698 36.6C697.4 37.3 697 38.3 696.8 39.3C697.5 39.8 698.4 40.2 699.2 40.3C703 40.2 706.9 39.7 710.7 39.6C712.3 39.8 713.9 40.2 715.5 40.7V41.8C714.5 42.2 713.5 42.5 712.4 42.7C707.1 42.7 702 42.3 696.8 42.3C695.3 42.3 694 42.7 692.8 43.5C692.3 43.9 692.6 45.7 693 46.7C694.1 49 696.2 48 697.5 47.2C701.5 44.6 705.8 46.2 709.8 45.6C709.9 46 710 46.2 710.2 46.6L703.4 49.2C703.4 49.4 703.5 49.8 703.5 50.1C707.8 50.5 712 51.4 716.3 50.1C718.6 49.4 720.8 48.6 722.8 51C723.4 51.5 724.3 51.6 725 51.5C729.3 50.6 733.7 49.8 737.9 48.9C738.4 48.8 738.9 48.5 739.2 48.3C737.4 45.9 738.5 44.6 740.9 44C742 43.5 743.3 44 743.8 45.2C743.8 45.3 743.9 45.4 743.9 45.7C744.5 47.8 745.2 49.9 746 52.2L744 54.3L746.3 55.8C745.3 57.9 741.4 57.6 742.8 61.2C738.2 61.7 733.8 62.4 729.6 66.6C731.3 67.5 732.7 68.4 734.1 69.2H753V66.7C752.3 66.5 751.6 66.1 750.8 65.6C751.6 64.7 752.3 64 753 63.7V0H0V68.8H5.3C5.3 68.4 5.3 68 5.3 67.6C5.7 63.6 5.7 63.6 3.2 60.9V59.8C4.8 60 6.5 60.2 8.1 60.5C10.1 61 12 61.8 14 62.2C18.9 63.2 20.9 65.1 20.7 68.7H28.7C28.7 68 28.8 67.3 29.1 66.4ZM731.7 44.6L726.3 43.7C726.4 43.3 726.4 42.8 726.5 42.4L731.9 43.1C731.8 43.7 731.7 44.2 731.7 44.6ZM719 28.8C715.2 32.5 710.8 33.2 708 30C711.8 29.1 715.1 27.7 719 28.8ZM692.6 23.9L696.5 24.5L696.3 26L692.4 25.5C692.4 25 692.5 24.4 692.6 23.9ZM684 21.6H674.1C677 19.2 681 19.2 684 21.6ZM603.2 24.4V25.5L588.7 24.8C591 23.2 600.3 23.2 603.2 24.4ZM334.9 16.7L323.5 20.4L323.1 19.3C325.2 16.4 330.9 14.8 334.9 16.7ZM160.2 32.3L155.9 34L155.3 32.5L159.5 30.7L160.2 32.3ZM150 25.8C152.1 24 154.9 23.6 157.4 24.6C156.2 27.4 152.9 29 150.4 28.1C149.2 27.7 148.8 26.6 150 25.8ZM63 36.5C64.6 38.2 66.4 39.6 66.2 40.2C65.6 41.5 64.5 42.5 63.1 43C62.5 43.1 60.7 41.4 60.4 40.4C60.3 39.4 61.7 38.3 63 36.5ZM6.4 43.7C10.2 40.5 18.4 40.8 21.4 43.9C19.4 45.7 9 45.6 6.4 43.7Z" fill="#C6C6C6"/>
</svg>
