<svg width="151" height="897" viewBox="0 0 151 897" fill="none" xmlns="http://www.w3.org/2000/svg">
<path style="fill:#fff" d="M150.6 640C150.6 640 150.7 640 150.7 640.1V0.0996094H38.2001C35.6001 0.699609 33.0001 1.29961 30.2001 0.699609C29.1001 0.499609 27.9001 0.299609 26.8001 0.0996094H16.8001C18.2001 0.299609 19.6001 0.599609 20.9001 1.09961V2.09961C20.0001 2.39961 19.2001 2.69961 18.2001 2.89961C13.5001 2.89961 9.00006 2.59961 4.40006 2.59961C3.10006 2.59961 1.90007 2.89961 0.800065 3.69961C0.400065 3.99961 0.600065 5.59961 1.00007 6.49961C2.00007 8.59961 3.80007 7.69961 5.00007 6.89961C8.60007 4.59961 12.4001 5.99961 16.0001 5.39961C16.1001 5.69961 16.2001 5.89961 16.3001 6.29961L10.2001 8.59961C10.2001 8.79961 10.3001 9.09961 10.3001 9.39961C14.1001 9.69961 17.9001 10.5996 21.7001 9.39961C23.8001 8.79961 25.7001 8.09961 27.4001 10.1996C27.9001 10.5996 28.7001 10.6996 29.3001 10.5996C33.1001 9.79961 37.0001 9.09961 40.8001 8.29961C41.2001 8.19961 41.7001 7.99961 42.0001 7.79961C40.4001 5.59961 41.4001 4.59961 43.5001 3.99961C44.5001 3.59961 45.7001 3.99961 46.1001 5.09961C46.1001 5.19961 46.2001 5.29961 46.2001 5.49961C46.7001 7.29961 47.4001 9.19961 48.0001 11.1996L46.4001 12.9996L48.5001 14.2996C47.6001 16.0996 44.2001 15.8996 45.4001 19.0996C41.3001 19.4996 37.4001 20.1996 33.7001 23.8996C36.0001 25.1996 37.8001 26.2996 39.7001 27.4996C40.2001 27.7996 40.7001 28.2996 41.2001 28.6996C40.8001 29.0996 40.4001 29.8996 39.9001 30.0996C38.2001 30.6996 36.7001 31.7996 34.7001 29.7996C33.9001 28.9996 31.5001 29.7996 29.5001 29.8996C29.9001 30.9996 29.9001 31.3996 30.1001 31.4996C33.6001 33.7996 37.0001 35.8996 40.5001 38.1996C43.6001 40.0996 46.7001 42.1996 49.9001 43.9996C51.2001 44.5996 52.9001 44.7996 54.8001 45.1996C54.6001 42.7996 54.5001 41.1996 54.3001 38.8996C55.8001 37.7996 57.9001 37.8996 59.2001 39.1996C60.9001 40.9996 59.0001 42.3996 57.9001 44.0996L59.3001 45.0996C58.2001 46.7996 58.7001 48.4996 60.6001 48.9996C62.3001 49.2996 64.1001 49.4996 65.9001 49.5996C65.0001 50.9996 63.8001 52.0996 63.8001 52.9996C63.8001 53.8996 65.3001 54.5996 66.3001 55.4996C65.2001 58.9996 69.9001 58.0996 70.4001 60.3996C68.7001 62.8996 66.8001 65.4996 62.7001 64.6996C65.1001 67.4996 69.5001 67.0996 70.9001 64.4996C71.0001 64.0996 71.2001 63.4996 71.5001 63.3996C72.6001 63.1996 73.6001 63.0996 74.6001 63.0996V66.9996C75.2001 67.2996 76.5001 67.8996 77.8001 68.4996C79.5001 69.3996 80.0001 70.1996 78.2001 71.6996C75.1001 74.2996 75.1001 75.1996 77.8001 78.1996C79.1001 79.5996 79.0001 79.8996 76.5001 81.1996C78.3001 83.3996 78.1001 84.0996 75.7001 85.6996C75.2001 86.0996 74.5001 87.1996 74.7001 87.5996C75.9001 90.2996 77.3001 92.9996 78.6001 95.6996C79.0001 97.0996 80.5001 97.7996 81.8001 97.2996C81.9001 97.1996 82.1001 97.1996 82.2001 97.0996C85.4001 95.5996 88.2001 93.4996 89.0001 89.6996C89.3001 88.1996 90.1001 86.7996 90.4001 85.3996C90.5001 84.5996 90.3001 83.9996 90.0001 83.2996C89.2001 81.6996 88.3001 80.1996 87.3001 78.7996C86.7001 77.8996 85.9001 77.0996 85.0001 76.1996C86.8001 74.8996 89.3001 75.2996 90.6001 77.0996C92.1001 79.5996 93.8001 81.5996 96.8001 82.3996C98.4001 82.6996 98.0001 83.6996 97.3001 84.7996C96.0001 86.9996 96.3001 87.4996 98.7001 88.4996C100.3 89.0996 103 89.8996 103.4 91.0996C104.3 94.0996 104 97.3996 104.3 100.6C104.3 100.9 104.1 101.2 103.8 101.5C100.9 103 101.3 105.7 101 108.3C100.6 111.3 99.5001 114.4 99.1001 117.4C98.6001 120.9 98.5001 124.4 98.2001 128C98.2001 128.3 98.3001 128.9 98.5001 129C101.3 130.2 100.6 132.7 101 134.8C101.3 136.5 102.2 138.3 102.4 140C102.4 141.7 102.2 143.5 101.9 145.2L102.8 146C102.8 148.1 102.8 149.6 102.8 151.1C102.9 154.3 102.2 157.6 104.1 160.7C105.1 162.2 103.5 163.4 101.8 163.1C99.4001 162.6 98.4001 164 97.7001 165.5C96.7001 167.7 96.0001 169.8 95.3001 172.1C95.2001 172.7 95.4001 173.4 95.8001 173.9C97.6001 175.1 97.9001 176.3 96.1001 177.8C95.7001 178.1 95.8001 179 95.7001 179.6C96.5001 179.7 97.3001 179.8 98.1001 179.8C100.5 179.5 103 179.5 105.3 179.8C103 180.8 100.6 181.6 98.2001 182.4C96.0001 182.9 94.8001 183.8 95.1001 186.1C95.5001 190.5 96.0001 194.9 96.4001 199.3C96.4001 200.7 97.5001 202 99.0001 202C99.8001 202.2 100.3 202.8 100.6 203.4C100.5 204.2 100.2 204.8 99.5001 205.2C97.7001 206.4 97.2001 207.3 99.4001 208.4C101.6 209.6 100.4 211.8 99.6001 212.9C98.0001 215.6 98.3001 217.8 100.5 219.9C101.9 221.3 101.1 223.1 99.2001 223.6C97.5001 224 94.8001 222.7 94.9001 226.2C95.0001 228.1 95.1001 230 95.2001 231.9L95.8001 232C95.0001 232.9 94.3001 233.8 93.5001 234.8C93.1001 235.3 92.7001 236.2 93.0001 236.6C93.4001 237.1 94.1001 237.5 94.7001 237.6C95.5001 237.7 96.3001 237.3 97.0001 237.5C98.0001 237.9 98.9001 238.6 99.6001 239.4C100.2 240.4 100.7 241.5 101 242.5C101.6 244.2 103.5 245.3 105.3 245.1C106.8 245.1 108.2 245.3 109.6 245.9C106.8 248.3 103.1 246.8 99.4001 248.6L102.1 250.2L101.2 250.5C101.4 252 102 253.6 101.6 255C101.2 256.2 100.2 257.2 99.1001 257.8C98.3001 258.1 97.4001 258.3 96.5001 258.3C96.5001 258.6 96.5001 258.8 96.5001 259.1C97.4001 259.2 98.1001 259.5 99.0001 259.9C99.4001 260.2 99.8001 260.9 100.2 261.3C99.7001 261.5 99.1001 262.1 98.7001 261.9C95.6001 260.8 94.9001 262.4 94.7001 265.1C94.6001 267.2 92.5001 267.3 90.9001 267.5C89.5001 267.6 87.2001 266.7 87.4001 269C87.5001 270.9 89.7001 270.2 91.1001 270.2C91.7001 270.2 92.5001 270.3 93.2001 270.3L93.6001 271.1L90.8001 272.9L88.4001 274.4C89.3001 274.9 90.2001 275.4 91.2001 275.6C92.9001 275.7 94.7001 275.5 96.4001 275.5C98.9001 275.6 99.6001 276.8 98.2001 278.9C96.8001 281 97.4001 282 99.3001 283.1C100.6 283.7 100.7 284.6 100.1 285.9C99.8001 286.9 99.7001 288 99.7001 288.9C99.6001 290.4 99.5001 291.8 99.4001 293.9C100.8 295.3 102 296.8 103.1 298.6C103.9 300.2 104 302.1 103.5 303.8C102.5 306.6 102.6 309 104.5 311.4C105.9 313.2 104.4 314.4 103 315.4C100.3 317.1 100.3 317.6 102.7 319.6C103 319.9 103.6 320.2 103.6 320.6C103.2 325.9 107.3 330.1 106.7 335.6C106.5 338.3 108.2 341.1 109.2 343.8C110 345.9 110 347.7 108.4 349.4C106.9 351.1 107 352.2 109.4 352.4C111 352.4 112.6 352.2 114.3 351.9C116.2 351.7 118.3 350.7 118.7 354.1C118.8 355.3 120.3 356.3 121.2 357.3C122.5 358.9 121.7 359.8 120 359.9C118.7 359.8 117.4 359.7 116.2 359.3C113.6 358.7 113.2 359.1 112.7 361.6C111.9 365.5 112.4 369.4 113.8 373.1C114.2 374.1 113.8 375.3 113.9 376.2C114.4 380.3 115.1 384.4 115.8 388.5C115.9 389.1 116.9 389.6 117.4 390.1C118 390.6 118.9 391.1 119.7 391.6C119.1 392.1 118.5 392.8 118.1 393.5C117.8 394.1 117.2 395.3 117.5 395.6C120.7 398.4 119.4 402.3 120.2 405.7C121 409.1 122 412.6 122.6 416.2C123.2 420.4 123.6 424.7 124 429.1C124 429.5 124 430 124 430.4C125.3 436.1 126.5 442 128 447.7C128.4 449.4 130.1 450.7 130.8 452.4C131.7 454.1 132.2 456 132.4 457.9C132.5 460.1 132.3 462.3 131.6 464.4C131.1 465.9 129.8 467.2 128.6 468.9L131.3 470.3C130.3 472.1 129.7 474.1 128.4 475.4C127.2 476.5 125.6 477.2 124 477.5C121.5 477.7 120.3 475 120.2 473.5C120 470 117 469 115.3 465.8C114.8 467.7 114.1 469 114.2 470.1C114.5 473 112.9 474.4 110.8 475.7L108.9 476.8C108.7 478.1 108.7 479.5 108.8 480.9C109 481.8 109.7 482.5 110.5 482.8C113.6 483.9 115.6 485.3 115.5 489.1C115.5 491.3 116.6 493.5 117.2 495.7C117.3 496.7 118.2 497.3 119.1 497.2C119.7 497.1 120.3 496.7 120.5 496.1C122.4 492.7 125.5 491.9 128.9 491.1C130.4 490.8 131.5 488.9 132.8 487.7L134.7 486C135.2 486.8 135.7 487.5 136 488.3C136.9 490.9 135.8 492.2 133.2 492.3C131.4 492.4 130.6 493.4 130.6 495.1C130.6 497 130.5 499.1 130.6 501.1C130.7 503 130.8 505 128.2 505.5C125.2 506 123.4 505.1 122.8 502.6C122.7 502.1 122.6 501.3 122.2 501C121.6 500.5 120.8 500.1 119.9 500.1C119.3 500.5 118.8 501.3 118.8 502C119.1 505.1 119.6 508.2 120.2 511.2C120.3 512.1 121.3 512.6 122 513.5C120.4 514.8 120.2 516.1 121.8 517.8C122.3 518.3 122.1 519.5 122.1 520.5C122.1 522 122.1 523.6 122.2 525.2C122.3 526 123.3 526.5 123.9 527C124.4 526.2 125 525.6 125.5 524.8C125.6 524.6 125.3 524.2 125.4 523.8C125.8 522.6 126.3 520.6 127 520.4C128.5 520.1 130.4 520.6 132 520.9C132.2 520.9 132.5 521.7 132.5 522C132.4 524.3 132.1 526.7 132 529C131.8 530.1 131.8 531.2 132.1 532.1C132.5 533.1 134 534.3 134.5 534.2C135.5 533.8 136.2 532.6 136.9 531.6C137.1 531 137.3 530.2 137.3 529.5C137.8 529.8 138.5 530.1 139.1 530.5C139.6 530.8 140.1 531.1 140.5 531.6C141.1 532.1 142.2 533.1 142.1 533.4C141.7 534.5 140.9 536.1 139.9 536.3C138.4 536.5 136.8 536.4 135.4 535.9C133.6 535.4 132 535.3 131.3 537.5C130.8 539.3 129.4 539.4 127.7 539.1C126.3 539 125.1 537.7 125.2 536.3C125.1 534.6 125.5 532.4 123.1 531.4C120.9 535.2 123.2 538.4 124.1 541.7C124.1 542.1 125.7 542.3 126.6 542.3C132.6 542.2 134.7 545.9 134 551.8C133.4 556.7 130.9 559.7 127.6 562.6C127.4 562.8 127.4 563 127.3 563.4L135.8 565.8C135.8 570.6 135.7 574.5 135.8 578.4C135.8 579.3 136.4 580 136.9 580.9C137.7 580.6 138.4 580 139.1 579.5C139.9 578.7 140.5 577.7 141.3 576.9C141.9 576.5 142.6 576 143.4 575.7C143.6 576.6 143.7 577.5 143.8 578.4C143.8 579.5 143.8 580.6 143.7 581.5C143.9 581.7 144.1 582 144.3 582.3C142.8 582.4 141.2 582.5 139.6 582.4C137.9 582.2 136.6 582.1 135.8 584.1C135.6 584.6 134 585.2 133.1 585C132.2 584.8 131.5 583.6 130.6 583.3C129.5 582.9 128.3 582.8 127.2 583.1C126.7 583.3 126.3 584.8 126.3 585.7C126.3 588 126.5 590.2 126.8 592.5C127.3 596.5 127.7 600.6 128.5 604.5C128.8 605.6 130.6 606.3 132 607.5L129.4 609.4C129.8 609.6 130.3 609.9 130.7 610.4C131.5 611.4 132.6 612.6 132.6 613.5C132.4 614.9 131.7 616.2 130.5 617C127.5 618.7 127.5 618.7 128.3 622C129.2 625.2 129.6 628.6 129.7 632C129.7 634.9 130.5 636.3 133.4 636.4C133.8 636.4 134.3 636.6 134.7 636.8C134.5 637.1 134.4 637.4 134.2 637.4C132.8 637.7 130.6 637.6 130.3 638.4C129.3 640.7 128.5 643.8 130.3 645.8C131.5 647.2 134.2 647.3 136.8 646.6C137.8 646.7 138.7 646.8 139.7 646.8V648C138.3 647.9 137 647.8 135.7 647.8C134.4 647.8 132.5 647.4 131.7 648.1C130.6 649.1 129.6 651.3 130.1 652.4C131.6 655.9 129.9 659.1 130 662.4C130.1 663.8 130.1 665.1 130.1 666.5C129.9 668.1 129.6 669.9 129.2 671.5C129.1 672.3 128.7 673.1 128.9 673.8C130 676.5 128.4 678.7 127.7 681C127.1 683.4 126.5 685.7 128.3 687.7C128.7 688.2 128.8 688.9 128.6 689.5C128.1 691.7 127.2 693.6 126.7 695.8C126.3 697.6 127.9 697.6 129.1 697.9C131.6 698.3 134.2 698.8 136.7 699.2V700.2C135.9 700.4 135.1 700.5 134.2 700.4C132.1 699.9 130.6 700.1 129.3 701.9C128.8 702.7 127.5 703 126.8 703.7C126.2 704.2 125.9 705.1 125.9 705.9C126.1 706.4 127.1 706.9 127.8 707.2C128.2 707.4 128.9 707.1 129.3 707.2C129.9 707.4 130.9 707.6 131.2 708.1C131.5 708.5 131.1 709.6 130.7 710.2C128.6 712.8 126.5 715.5 124.3 718C122.1 720.5 123.7 725 127.1 725.9C128.3 726.2 129.6 726.3 130.9 726.5V727.3C129.2 727.4 127.5 727.4 125.9 727.5C120.9 727.7 120.2 728.8 119.7 733.6C119.4 737 118.1 740.4 117.2 743.8C116.6 746.3 116.1 748.9 115.5 751.4C114.2 756.5 112.4 761.5 110.2 766.2C108.6 769.7 107.6 773.3 106.1 776.8C104.5 780.7 102.4 784.4 100.7 788.3C99.9001 790 99.6001 792.1 99.0001 793.9C97.9001 796.5 97.1001 799.1 96.2001 801.8C95.9001 803.7 95.9001 805.8 96.4001 807.8C96.8001 809.4 98.3001 810.4 100.4 810.6C104.6 811 108.7 811.8 112.8 812.4C113.4 812.6 114.1 812.8 114.6 813.2L114.8 814.1C113.7 814.9 112.6 815.4 111.4 815.8C108.7 816.3 105.9 816.7 103.2 817.2C102.2 817.4 101.3 817.7 100.3 818.2L105.4 822.6C106.9 823.8 107.3 825.8 106.6 827.6C106.3 828.2 105.6 829.1 105.1 829.1C104.6 829.1 103.9 828.3 103.5 827.8C102.1 826 100.8 824 99.2001 822.4C98.7001 822 97.3001 822.4 96.3001 822.6C95.9001 822.7 95.5001 823.5 95.1001 823.5C94.0001 823.5 92.9001 823.3 91.9001 823.1C91.8001 823.1 91.6001 822 91.7001 822C92.6001 821.6 93.4001 821.2 94.3001 821C94.8001 820.9 95.4001 820.5 95.8001 820C95.0001 819.8 94.2001 819.5 93.4001 819.2C91.7001 818.8 89.9001 818.1 88.2001 817.4C87.0001 816.5 85.5001 816.9 84.6001 817.9C84.5001 818 84.5001 818.2 84.4001 818.3C82.2001 821.7 80.5001 825.2 78.0001 828.4C74.8001 832.4 74.6001 836.3 76.7001 840.7C78.5001 844.5 78.4001 844.6 75.7001 846.4C75.5001 848.1 75.4001 850 75.4001 851.7C75.4001 853.4 75.6001 855.1 76.2001 856.7C76.8001 858.3 77.7001 859.8 78.7001 861.2C79.9001 863.3 78.7001 863.7 77.2001 863.6C75.9001 863.4 74.6001 863.1 73.4001 862.6C71.8001 862.1 70.8001 862.3 70.8001 864.2C70.8001 867.4 70.7001 870.6 70.3001 873.8C69.9001 876.5 69.9001 878.8 71.4001 881.3C72.7001 883.5 71.1001 885.5 69.7001 887.1C68.9001 887.9 67.8001 887.9 67.4001 886.2C67.1001 885.1 66.6001 884.1 66.1001 883.2C65.8001 882.4 65.0001 881.5 65.2001 880.8C66.0001 877.7 63.7001 875.6 62.6001 873.2C64.3001 870.5 63.4001 869.3 61.0001 867.8C60.7001 867.7 60.5001 867.6 60.2001 867.5C53.8001 864.1 53.1001 866.1 54.0001 871.5C54.0001 871.7 54.1001 871.9 54.0001 872C51.5001 874.6 53.2001 877.8 52.9001 880.8C52.9001 882.4 53.5001 884 54.8001 885.2C57.2001 886.8 59.7001 888.2 62.4001 889.3C63.6001 889.8 64.8001 890.3 66.0001 890.6C66.0001 890.9 65.9001 891.2 65.9001 891.6C64.4001 891.4 62.9001 891.4 61.4001 891.1C59.0001 890.7 56.6001 889.9 54.3001 889.5C52.5001 889.2 51.3001 889.5 52.1001 891.9C52.3001 892.3 51.3001 893.7 51.0001 893.7C50.1001 893.7 48.8001 893.2 48.6001 892.6C48.1001 890.9 48.2001 889.1 47.8001 887.4C47.5001 886.6 47.0001 885.8 46.4001 885.1C45.8001 885.7 45.3001 886.5 44.9001 887.4C44.4001 889 44.3001 890.8 43.6001 892.4C43.2001 893.3 42.3001 893.8 41.4001 893.9C40.4001 893.9 39.6001 893.5 39.0001 892.7C37.6001 891.1 35.6001 891 33.3001 892.7C31.5001 894 32.2001 895.2 33.4001 896.4C33.6001 896.6 33.7001 896.8 33.9001 897H149.7V641.6L148.9 641.4C150.1 641 150.4 640 150.6 640ZM35.1001 4.79961L30.4001 3.99961C30.5001 3.69961 30.5001 3.19961 30.6001 2.79961L35.4001 3.39961C35.2001 3.89961 35.1001 4.29961 35.1001 4.79961ZM52.0001 22.9996C54.2001 20.2996 56.2001 20.4996 57.8001 23.2996C56.1001 24.6996 54.5001 24.5996 52.0001 22.9996ZM59.0001 17.7996C58.4001 17.6996 57.9001 17.2996 57.7001 16.6996C57.7001 16.0996 57.8001 15.4996 58.1001 14.9996C59.2001 12.7996 58.4001 9.69961 61.7001 8.89961C62.7001 8.79961 63.6001 8.79961 64.6001 8.89961C64.5001 9.79961 64.3001 10.5996 64.0001 11.4996C63.7001 12.0996 63.1001 12.7996 62.6001 13.2996C63.4001 14.2996 64.0001 14.9996 64.8001 15.9996C63.2001 17.4996 61.1001 18.1996 59.0001 17.7996ZM83.4001 48.3996C81.2001 52.5996 78.7001 56.6996 76.0001 60.7996C75.6001 61.3996 74.1001 61.2996 73.0001 61.6996C73.6001 59.7996 74.1001 58.6996 74.5001 57.5996C76.3001 53.2996 78.2001 48.8996 80.0001 44.5996C80.4001 43.6996 80.8001 42.8996 81.2001 41.9996C82.3001 39.6996 84.1001 39.1996 86.0001 40.3996C85.1001 43.0996 84.6001 45.8996 83.4001 48.3996ZM102.1 178.3C101.3 178.4 100.7 177.4 99.7001 176.8C101.4 175.4 99.5001 172.5 102.3 172.8C103.1 172.9 103.7 175.2 103.9 176.6C104 177.1 102.8 178.2 102.1 178.3ZM107.3 279.5C106.8 280 105.1 280.3 103.9 280.6L103.6 279.3L106.5 278L102 276.4C104.5 275.3 106.4 275.1 107.8 276.6C108.3 277 107.8 278.9 107.3 279.5ZM111.4 39.0996C112.9 39.0996 114.2 39.2996 114.2 39.5996C114.2 39.9996 112.9 40.1996 111.4 40.1996C109.9 40.1996 108.6 39.8996 108.6 39.5996C108.6 39.2996 109.9 39.0996 111.4 39.0996ZM113.2 210.6L107.6 210.2C109.4 207.1 111.7 207.2 113.2 210.6ZM105.2 241.5C105 241.4 104.2 241.3 104 240.9C103.9 240.4 104 239.7 104.3 239.3C105.4 237.8 105.7 235.3 108.3 235.4C109.1 235.5 109.7 235.7 110.4 236.2C110.6 236.3 110.3 237.4 110 237.9C108.5 240.6 107.4 241.5 105.2 241.5ZM110.1 312.4C111.9 310.8 113.7 310.9 115.7 311.8C114.3 314 112.6 314.2 110.1 312.4ZM115.1 233.8C113.2 233 111.3 232.2 109.5 231.2C112.1 228.8 115.5 229.1 116.7 231.6C117.7 233.5 116.2 234 115.1 233.8ZM110 214.2C112.7 213.4 114.5 211.2 117.4 212.6C116 216 113.2 216.7 110 214.2ZM120.3 238.9C120.4 238.6 120.4 238.1 120.5 237.8C122.1 236.9 123.4 237.5 124.3 239.9L120.3 238.9ZM122 380C120.9 379.9 119.8 379.6 118.9 379.2C118.8 378.9 118.8 378.4 118.9 378.1C120 377.8 121.2 377.6 122.4 377.6C123.2 377.7 123.9 378 124.7 378.5V379.4C123.7 379.7 122.9 379.9 122 380ZM128.8 405C127.5 405.6 125.8 405.4 124.3 405.5L124 404.5C125 403.4 125.7 402 126.9 401.5C127.8 401.1 129.1 401.9 130.3 402.1C129.8 403.1 129.6 404.7 128.8 405ZM126 487.2C124.7 487.5 123.3 487.7 121.9 487.7L121.6 486.4C122.8 485.6 124 484.8 125.3 484.1C125.6 484 126.6 484.5 126.6 484.6C126.5 485.6 126.4 487.1 126 487.2ZM130.1 516.6C128.5 516.7 126 517.6 125 515.3C124.4 513.9 124.4 512.3 124.8 510.8C125.4 509 127.4 507.9 129.2 508.5C129.6 509.7 130.1 510.7 130.4 511.4C130.7 512.1 131.3 513 131.7 513.9C132.5 515.7 131.7 516.5 130.1 516.6ZM139.6 561.4C138.5 559.9 137.7 559.2 137.7 558.5C137.7 556.7 138.1 554.6 140.3 554.4C140.7 554.4 141.8 556.8 142 558.1C142.1 558.9 140.8 559.8 139.6 561.4ZM83.0001 882.1C82.1001 881.9 81.4001 881.3 81.1001 880.6C80.9001 880.1 81.7001 879.2 82.7001 877.8C83.6001 879.1 84.4001 879.9 84.4001 880.5C84.5001 881.2 83.5001 882.2 83.0001 882.1ZM143 590.5L143.5 592.1C142.4 592.3 141.4 592.6 140.4 592.9C140.3 592.9 140 592.1 139.8 591.7L143 590.5ZM144.5 604.1V605C143.4 605.4 141.6 606.3 141.3 606C140.4 605 140.3 603.6 139.9 602.2C142.9 600.6 142.7 604.1 144.5 604.1ZM134.1 588.6L136.8 586.4L139.2 588.3C138.3 588.8 137.5 589.8 136.7 589.8C135.9 589.8 135 589 134.1 588.6ZM136.3 611.2C137.6 610.3 138.9 609.5 140.3 608.7C143.5 607.3 145.3 608.7 145 612.1C144.9 613.1 144.7 614.2 144.4 615.1C143.2 614.8 142.1 614.3 140.9 613.9C139.4 613.3 138.2 612.4 136.3 611.2ZM138.1 624.8C140.2 622.3 142.5 622.4 144.6 624.8H138.1ZM143 813.1C142.7 812.2 142.8 811.3 143.3 810.5C145.5 809.3 146.4 811.3 147.8 812.7C146 814.1 144.4 814.4 143 813.1ZM146.6 628.1C146.6 628 146.5 628 146.5 628C146.3 627.8 146.4 627 146.3 626.5L150.2 626.2L150.3 627.3C149.5 628.5 147.9 628.8 146.6 628.1Z" fill="#C6C6C6"/>
</svg>
