<svg width="753" height="83" viewBox="0 0 753 83" fill="none" xmlns="http://www.w3.org/2000/svg">
<path style="fill:#fff" d="M740.3 29.8996C738.2 29.4996 736.8 29.8996 737.8 32.6996C738.1 33.1996 736.9 34.7996 736.5 34.7996C735.5 34.7996 734 34.1996 733.7 33.4996C733.1 31.4996 733.2 29.4996 732.8 27.3996C732.4 26.4996 731.9 25.4996 731.2 24.7996C730.4 25.5996 729.9 26.3996 729.4 27.3996C728.8 29.2996 728.6 31.2996 727.9 33.1996C727.4 34.1996 726.4 34.7996 725.4 34.9996C724.3 34.9996 723.3 34.4996 722.6 33.5996C721 31.6996 718.7 31.5996 715.9 33.5996C713.8 35.0996 714.6 36.4996 716 37.8996C717.4 39.2996 716.9 40.4996 715.2 41.5996C712.6 43.3996 709.1 42.5996 707.4 39.9996C707.1 39.6996 707 39.0996 706.8 38.9996C703.5 37.3996 700.2 35.6996 697 34.1996C695.7 33.6996 694.2 33.6996 692.8 33.2996C690.2 32.3996 687.9 31.8996 687.1 35.6996C686.7 36.6996 686 37.5996 685 38.0996C684.2 38.4996 683.2 38.4996 682.5 38.1996C682.1 38.0996 681.9 37.0996 681.9 36.3996C682 32.4996 681 30.6996 677.2 29.6996C671.5 28.1996 665.7 26.8996 659.9 25.8996C657.6 25.5996 655.2 25.9996 653.2 27.1996C645.8 31.0996 637.8 32.1996 629.6 31.8996C628.7 31.8996 627.8 32.1996 627.1 32.7996L630.6 35.0996C627.6 36.3996 625.8 34.7996 623.8 33.7996C621.8 32.7996 619.9 31.9996 618 31.2996C618.1 32.7996 618 34.4996 617.7 35.9996C617.2 37.8996 617.6 38.9996 619.3 39.6996C621.4 40.4996 623.6 41.6996 622.7 44.1996C622.1 46.0996 620.8 47.5996 619.2 48.5996C616.9 49.5996 614.3 49.0996 612.8 47.1996C611.7 45.6996 610.2 44.2996 608.4 43.3996C607.3 42.8996 605.5 43.8996 604.1 44.3996C602.5 44.9996 600.8 45.6996 599.1 46.1996C596.1 46.6996 593 46.7996 590 47.1996C588 47.4996 586.1 47.4996 584.7 49.5996C584.2 50.1996 582.4 50.4996 581.3 50.1996C578 49.6996 575 48.5996 571.7 48.1996C569.3 47.8996 566.9 48.0996 564.5 48.4996C563.9 48.5996 563.2 49.9996 562.7 50.8996C563.5 51.4996 564.2 51.9996 565.1 52.3996C568.3 53.2996 571.4 53.8996 574.6 54.6996C575.1 54.7996 575.5 55.4996 576.2 56.0996C575.3 56.4996 574.4 56.5996 573.6 56.6996C566.9 56.0996 560 56.3996 553.8 52.7996C553.4 52.6996 553 52.3996 552.7 52.3996C548.9 52.0996 546.6 50.5996 546.1 46.4996C545.8 43.8996 543.1 43.5996 541.3 45.6996C541.2 45.7996 540.9 46.2996 540.8 46.2996C535.4 46.7996 537 51.1996 536.1 54.3996C535.8 55.6996 535.5 56.8996 534.7 58.0996C533.9 58.9996 532.8 59.4996 531.7 59.4996C530.8 59.4996 529.8 58.3996 529.4 57.4996C528.1 54.5996 527.1 54.1996 524.7 56.0996C524.4 56.3996 524.3 56.4996 524.1 56.6996C520.2 59.9996 520.2 59.9996 524.2 63.2996L521.7 65.5996L524.3 68.0996C522 70.4996 518.7 70.8996 516.6 69.1996C513.7 67.0996 514 65.8996 515.2 62.0996C516.3 58.3996 516.8 54.7996 516.8 51.0996C516.9 48.5996 515.3 47.1996 512.5 47.0996C510.2 47.0996 508 46.2996 505.8 46.0996C503.7 45.7996 501.6 45.7996 499.9 48.0996C498.1 50.3996 495 49.5996 493.3 47.0996C492.2 45.1996 489.8 44.6996 487.9 45.7996C487.4 46.1996 487 46.5996 486.6 47.0996C485.6 48.6996 484.5 48.8996 482.8 48.0996C478.9 46.1996 476.9 47.0996 475.6 51.3996C474.8 53.6996 473.5 54.7996 471.2 54.1996C468.8 53.5996 468.9 51.6996 469.6 49.7996C471.1 44.8996 470.5 43.9996 465.4 43.8996C458.6 43.5996 456.3 45.1996 454 51.5996C453.1 54.0996 451.7 55.5996 449.1 55.9996C445.3 56.4996 443.3 53.8996 444.7 50.2996C445.8 47.0996 443.3 43.3996 440 43.3996C437.6 43.3996 434.8 42.8996 433.6 46.1996C433.5 46.4996 431.1 46.0996 429.7 45.6996C428.3 45.2996 426.9 44.1996 425.7 44.3996C420.9 45.1996 416.2 45.4996 411.6 43.5996C409.7 42.9996 407.8 42.5996 405.9 42.4996C402.1 42.0996 401.1 42.8996 400.2 46.4996C399.3 50.3996 397.4 52.3996 394.5 52.0996C393 51.9996 391.5 51.6996 392.5 49.4996C392.9 48.8996 391.9 47.6996 391.5 46.8996C390.6 47.2996 389.9 47.7996 389.2 48.3996C387.7 50.4996 386.7 53.1996 384.8 54.7996C383 55.8996 380.9 56.2996 378.9 55.7996C376.9 55.3996 377.8 53.3996 378.4 51.9996C379.8 48.4996 381.3 45.0996 382.3 41.4996C383.6 37.4996 380.4 34.3996 376.6 36.2996C373.4 37.7996 371.3 36.5996 368.4 35.8996C362.1 34.8996 355.8 34.0996 349.4 33.8996C347.5 33.5996 346.6 34.9996 346.6 37.0996C346.3 42.7996 349.2 46.0996 354.9 46.1996C357.5 46.4996 360.3 46.4996 363.1 46.4996C365.1 46.1996 367 45.6996 368.9 44.9996C370.8 44.3996 372.4 43.3996 372.9 46.4996C373 47.2996 373.9 47.9996 375.2 49.6996C369 49.9996 363.5 50.2996 357.9 50.2996C355.1 50.2996 352.3 49.6996 349.4 49.3996C347.6 48.9996 345.9 50.1996 345.5 51.8996C345.5 51.9996 345.5 51.9996 345.5 52.1996C344.7 54.6996 343.5 57.0996 340.2 56.8996C338.3 56.7996 337 55.9996 337.7 53.6996C338 52.6996 338.1 51.6996 338.2 50.6996C338.5 48.8996 337.7 48.2996 336.1 48.0996C324.2 46.5996 312.4 44.6996 300.4 43.3996C294.2 42.7996 288 43.0996 281.9 43.3996C280.9 43.3996 279.9 44.3996 278.9 44.8996C277.5 45.4996 276.1 46.4996 274.7 46.4996C271.8 46.4996 268.8 45.8996 265.7 45.8996C264.8 45.8996 263.9 46.7996 263.3 47.4996C261.4 49.4996 260.3 51.9996 259.8 54.6996C259.7 55.5996 256.9 56.2996 255.3 56.2996C254.4 56.2996 253.5 54.6996 252.9 53.4996C252.6 52.6996 252.8 51.9996 253 51.3996C253.8 49.0996 253.5 47.4996 251.4 47.3996C251.3 46.2996 251.4 45.2996 251 44.9996C248.6 43.0996 245.7 44.4996 244.8 47.2996C244.4 48.5996 243 49.6996 242.2 50.7996C241.2 49.8996 240.4 48.8996 239.4 47.9996C238.8 47.4996 237.9 46.5996 237.4 46.6996C236 47.0996 234.8 47.9996 233.7 48.9996C232.2 50.8996 231.2 53.2996 229.8 55.1996C227.9 57.4996 224.6 57.9996 222.1 56.4996C221.5 55.9996 220.7 55.1996 220.7 54.5996C220.7 51.3996 218.8 51.3996 216.5 51.6996C213.2 51.9996 209.8 51.5996 207.9 55.0996C207.5 55.6996 207.3 56.3996 207 56.9996C206.2 60.2996 205.6 63.6996 204.7 66.9996C204.1 69.0996 201.7 69.7996 198.4 68.7996C195.9 67.9996 195.4 66.4996 196 64.0996C196.9 60.8996 197.5 57.6996 198 54.3996C197.7 53.0996 197 51.9996 195.9 51.3996C191.7 49.3996 187.3 47.6996 183 45.9996C181.7 45.4996 180.4 44.9996 179 44.5996C176.7 43.9996 175.2 44.1996 174.6 47.0996C174.2 48.6996 172.5 51.0996 171.4 51.0996C168.9 50.9996 167.4 49.0996 167.9 46.1996C168.4 44.7996 168.4 43.3996 168.3 41.9996C168 40.6996 167.2 39.6996 166 39.1996C161.2 37.7996 156.3 36.7996 151.4 36.1996C149.4 35.8996 147 37.0996 145.1 38.1996C143.7 38.9996 143.1 39.2996 142.2 37.8996C141.4 36.5996 140.8 34.6996 139.8 34.4996C137.4 33.8996 134.9 33.8996 132.4 34.4996C129.8 35.2996 127.5 35.7996 124.7 34.7996C123.1 34.3996 121.3 34.4996 119.7 35.0996C113.9 36.3996 108.2 37.3996 102.3 34.9996C99.7998 33.9996 96.4998 34.9996 93.4998 34.6996C90.4998 34.3996 87.5998 33.8996 84.4998 33.3996C81.5998 32.8996 78.5998 31.9996 75.6998 31.7996C73.7998 31.7996 71.9998 30.8996 70.7998 29.4996C68.9998 27.8996 66.9998 26.4996 64.6998 25.5996C60.4998 23.5996 56.3998 21.7996 52.1998 19.7996C49.3998 18.3996 46.0998 18.3996 43.4998 19.8996C36.6998 23.0996 30.3998 26.9996 24.6998 31.7996C19.3998 36.2996 11.1998 33.6996 8.8998 26.9996C8.0998 25.3996 6.9998 23.7996 5.6998 22.5996C4.1998 21.1996 3.8998 18.8996 5.0998 17.2996C6.5998 14.4996 7.89981 11.5996 9.0998 8.69961C9.19981 8.29961 9.4998 7.79961 9.3998 7.59961C7.3998 1.89961 7.2998 -4.90039 0.699805 -7.80039C0.599805 -7.80039 0.399805 -7.90039 0.299805 -7.90039V82.0996H536.6C537.1 81.9996 537.6 81.9996 538.2 82.0996H752.8V32.2996C751.4 32.1996 750.1 32.0996 748.7 31.7996C745.8 31.2996 743.1 30.3996 740.3 29.8996ZM391.5 60.7996C390.9 60.7996 389.9 59.7996 389.9 59.2996C389.9 58.4996 390.8 57.7996 391.8 56.4996C392.6 57.7996 393.4 58.4996 393.4 59.3996C393.4 59.8996 392.1 60.7996 391.5 60.7996ZM667.2 36.5996C660.9 37.8996 654.5 37.6996 648.2 36.2996L648.1 35.1996C650 34.8996 651.9 34.7996 653.8 34.2996C654.7 33.9996 656.1 33.4996 656.3 32.7996C657.4 30.2996 658.6 29.4996 661 30.7996C663.3 32.1996 665.4 33.7996 667.6 35.4996C667.4 35.7996 667.4 36.1996 667.2 36.5996ZM725.1 45.6996C724.2 45.5996 723.5 44.3996 722.6 43.7996C723.2 43.2996 724 42.2996 724.7 42.1996C725.5 42.0996 726.5 42.7996 728.2 43.4996C726.7 44.6996 725.8 45.7996 725.1 45.6996ZM736.7 48.7996C733.9 48.7996 733 47.6996 733 43.3996C733 41.2996 733.8 39.3996 736.3 39.3996C740 39.3996 739.3 42.1996 739.5 45.4996C739.6 46.4996 739.9 48.7996 736.7 48.7996Z" fill="#C1C1C1"/>
</svg>
