<svg width="153" height="898" viewBox="0 0 153 898" fill="none" xmlns="http://www.w3.org/2000/svg">
<path style="fill:#fff" d="M141.1 882.6C138.8 881.4 136 881.4 133.8 882.7C128.1 885.3 122.8 888.6 118 892.7C113.6 896.5 106.7 894.3 104.8 888.7C104.2 887.3 103.2 886.1 102.2 885C100.9 883.8 100.7 881.9 101.7 880.6C103 878.3 104 875.8 105.1 873.4C105.2 873.1 105.4 872.7 105.3 872.4C103.4 867.8 103.3 862.1 97.8 859.7C96.7 859.4 95.7 859.2 94.6 859.2C93 859.2 92.2 858.6 92.2 856.8C92.2 855.8 91.8 854.9 91.2 854C89.5 851.2 89.9 850.2 93 849.9C93.6 849.8 94.3 849.4 94.7 848.8C94 848.5 93.1 848.3 92.4 848.1C89.6 847.7 88.6 846.6 88.6 843.9C88.6 842.3 88.9 840.6 88.7 839C88.6 836.8 88.2 834.7 87.5 832.5C86.4 829.6 87 828.4 90.1 828.7C92.3 828.9 93.5 828.5 94.1 826.2C94.5 824.5 94.1 824 92.5 824C89.7 823.9 89.7 823.8 90.9 821.2C91.4 820.1 91.7 819.1 91.9 818C91.9 813.1 91.8 808.4 91.7 803.6C91.7 801.9 91.3 800.6 89.3 800.6C88.2 802.8 87.2 805 86 807.2C85.6 807.8 84.8 808.3 84 808.3C83.2 808.1 82.6 807.5 82.4 806.7C82.2 805.3 82.3 804.1 82.5 802.7C82.6 801.2 82.9 799.8 83.2 798.4L82.5 797.7C80.6 798.5 78.7 799.6 77 800.8C76.6 801.1 76.9 803.1 77.3 804C78.7 806.8 79.5 809.3 77.1 812.1C76.8 812.6 76.6 813.2 76.7 813.8C77.2 817.5 74.8 819.3 72.1 821.1C71.3 821.6 70.7 822.5 70.5 823.4C69.9 827.8 69.3 832.3 68.7 836.7C68.5 838.5 68.7 841 67.6 841.9C66.5 842.8 64.1 842 62.3 841.7C61.1 841.6 59 840.7 59 840.5C59.3 838.5 59.8 836.6 60.6 834.7C60.9 834.1 61.7 833.5 62.3 833C61.6 832.7 60.8 832.2 60.1 831.6C59.3 831 58.1 830 58.1 829.2C58.1 823.8 56.6 818.6 55.2 813.5C54.4 810.2 53.9 806.8 53.3 803.5C53.2 802.8 53.1 802 52.8 801.3C50.7 797.1 49.5 792.4 49.5 787.6C49.5 783.7 48.3 779.9 48.1 775.9C47.6 769.4 48.5 762.9 51 756.8C51.6 755.3 50.9 753.3 51.4 751.7C53.9 744.7 52.9 737.4 53.4 730.2C53.9 723.5 53.4 716.9 53.4 710.1C53.4 704.3 53.5 698.4 53.5 692.6C53.7 689.5 53.6 686.6 53.4 683.5C52.9 679.9 51.7 676.3 50.9 672.7C50.9 672.6 50.7 672.5 50.7 672.3C49.9 667 49 661.6 48.2 656.3C47.9 654.2 47.5 652 47 649.8C46.5 647.3 46 644.6 45.6 642.1C45 638.9 43.9 635.5 44 632.4C44.3 625.1 42.4 618.1 41.7 610.9C41.8 610.2 42 609.4 42.4 608.8C41.6 607.6 40.8 606.5 39.9 605.4C38.7 604.1 37.4 603.2 38.7 601.1C39.2 600.3 38.7 598.6 38.3 597.3C37.6 594.5 36.5 591.9 35.9 589.1C35.5 586.7 35.3 584.2 35.3 581.8C35.3 581.5 36.1 580.8 36.6 580.8C37.7 580.9 39 581 39.6 581.8C40.4 583.3 41.1 584.9 41.6 586.5C41.8 587.3 42 588.1 42.4 588.8C44.8 592.4 44.6 592 48.4 589.9C50.8 588.5 54 588.2 57 588C58.4 587.9 59.8 589.4 61.1 590.2C61.4 590.5 61.9 591.3 61.8 591.5C59.7 594.7 63.2 597.4 62.3 600.5C62.2 601.2 61.9 602 61.6 602.6C60.2 604.9 60 607.4 61.9 609.1C63.6 610.6 64.3 612.8 63.8 614.9C63.1 617.8 63.3 620.7 64.5 623.4C66 626.5 65 629.8 66.4 632.7C66.6 632.9 66.6 633.2 66.6 633.4C65.9 638.9 68.1 644.3 67.6 649.8C67.1 655.1 68.7 660.4 69.2 665.6C69.5 669.3 70 673 70.2 676.7C70.1 678.5 69.8 680.3 69.2 682.1C69.1 682.4 68.9 682.9 69.1 683.3C71.9 687.9 70.4 693 71 697.8C71.3 700.3 71.2 703.1 71.6 705.6C72.6 710.9 69.8 715.9 70.1 721.2C70.5 726.4 70.5 731.6 70.2 736.8C69.7 742 69.6 747.3 70 752.5C70.3 755.4 69.5 758.3 69.2 761.3C69.2 761.3 69.2 761.4 69.2 761.5C69.5 763.9 70.5 766.4 68.5 768.6C68.2 768.8 69.1 770.3 69.7 771.1C70.4 772.4 70.9 774 69.3 774.3C65.2 775 64.9 778.4 64.6 781.1C64.1 786.5 64.2 792 64.9 797.4C65 797.9 65.2 798.5 65.5 799C67.1 801.1 67 802 64.5 802.8C62.3 803.5 62 804.7 62.5 806.7C62.7 807.9 62.5 809.1 62.7 810.3C62.8 811 63.1 812 63.7 812.2C64.4 812.3 65.2 812.1 65.7 811.7C67.8 810.1 68.8 806.4 68.1 805.3C69.9 803.4 71.6 801.5 73.2 799.5C74.4 797.8 76.9 796.4 75.6 794C74.3 791.6 74.5 789.3 75.7 786.7C76.8 784.4 75.5 781 76.7 778.8C78 776.3 77.2 773.7 78.2 771.3C78.8 769.6 79.6 767.8 80.1 766C80.6 764.2 80.8 762.8 79.3 761.1C77.1 758.8 77.8 755.5 80.5 753.4C80.8 753.2 81.2 752.9 81.2 752.7C81.4 749 83.6 745.4 82.3 741.7C81.7 740.5 82.1 739.2 83.1 738.5C83.9 737.8 84.6 736.7 84.8 735.6C85.5 731.3 86.2 726.9 86.8 722.4C85.8 722.7 84.9 722.7 83.9 722.5C82.5 722 80.5 720.9 80.4 719.9C80.2 717.9 82.4 717.5 84 717.7C86.3 717.9 88.8 718.5 90.7 716.5C91.2 715.9 91.8 714.4 91.4 714.1C90.4 713.1 90.3 711.6 91.2 710.4C92.2 708.7 91.6 707.8 90.1 706.8C89.5 706.3 88.9 705.7 88.4 705.2C86.8 703.9 86.5 700.4 87.8 698.8C88.2 698.3 88.4 697.7 88.8 697.1C87 697.3 85.6 697.5 84.2 697.5C83 697.5 81.4 697.4 81.9 695.7C82.1 695 83.6 694.2 84.5 694.1C85.5 694 86.5 694.9 87.6 695.2C88 695.4 88.7 695 89.1 694.9C88.9 694.4 88.8 693.7 88.4 693.5C87.3 693 86.3 692.5 85.2 692.1L91.1 689.5L90.9 688.7C89.9 688.7 89 688.6 88 688.5C87.2 688.2 86.4 687.8 85.7 687.2C85.5 687.1 85.8 686 86 685.9C86.8 685.6 87.8 685.5 88.6 685.6C89.7 685.8 90.8 687.5 91.5 685.7C91.7 685.1 90.2 683.2 89.2 682.8C84.3 681.4 83.1 678.6 84.5 673.8C85.3 671.3 84.9 668.4 85 665.6C85 664.3 85.1 663 85.2 661.7C85.2 661.5 86.3 661.1 86.7 661.2C87.4 661.4 88.5 661.8 88.7 662.5C89 663.7 89.2 664.8 89.1 666C89.2 670.7 89.2 675.5 89.4 680.2C89.4 680.6 90 681 90.5 681.5C90.9 680.9 91.8 680.2 91.8 679.6C91.9 677 91.8 674.2 91.9 671.4C92.1 670.4 92.4 669.6 93 668.8C93.8 669.2 94.8 669.8 95.6 670.3C96 670.5 96.4 670.9 96.8 671.3C97.2 670.5 97.4 669.5 97.4 668.5C97.1 667.9 96.4 667.4 95.7 667.4C92.9 667.7 91.8 666.3 91.9 663.7C91.9 662.9 91.6 662 91.6 661.2C91.6 659.5 91 659.1 89.4 659.6C88.2 660 87 660.2 85.7 660.1C85.2 660.1 84.1 658.9 84.2 658.6C84.5 657.8 85.2 657 86 656.6C86.6 656.4 87.6 656.8 88.4 657C91.2 657.7 91.5 657.5 91.8 654.8C92 653.5 92.1 652.2 92 650.9C91.9 650.3 90.6 649.8 90 649.3C89.6 649.9 89 650.6 88.6 651.2C88.2 652.2 88 653.8 87.5 653.8C85.9 654 84.2 653.8 83.7 651.7C83.1 649.4 82.5 647 82.1 644.6C81.8 641.7 83.1 640.3 86 639.9C88.2 639.7 89.7 638.8 89.9 636.4C88 636 86.1 635.3 84.2 634.6C83.5 634.2 83 633 82.5 632.2C83.5 632.1 84.5 631.6 85.3 631.9C88.1 633 90.1 632.6 90.9 629.6C91.1 628.8 91.2 628 91.3 627.3C90.6 627.2 89.6 626.8 89 627.1C84.8 629.2 82.3 626.5 79.4 624.3C82 622.1 82.4 617.8 80.8 613.3C80.1 610.5 79.4 607.8 79.1 604.9C78.9 603.1 78.7 601.4 78.7 599.6C78.6 598.1 78.7 596.6 78.7 595.2C78.6 588.5 78.5 581.7 78.4 575.1C78.4 573.3 78.7 571.6 78.7 569.8C78.7 560.3 79.2 550.8 78.6 541.4C78.2 534.6 76.3 527.9 75 521.3C74.7 519.8 73.1 518.1 73.5 517C74.3 514.5 73.4 512.4 73 510.2C72.4 506.3 72.6 502.1 72 498.1C71.8 496.3 70.5 494.7 70.1 492.9C69.7 491.6 70.1 490.3 69.8 488.9C69.4 486.9 68.7 485 68.2 483C68 482.2 67.7 481.1 68 480.6C69.1 478.9 68 478.2 66.8 478C64.6 477.7 62.2 477.6 60 477.5C59 477.5 58.1 477.4 57.1 477.4L57.2 476.3C57.9 476.3 58.7 476.3 59.4 476.3C60.7 476.3 61.9 476.1 63.2 476C63 474.4 63.1 472.5 62.2 471.2C61.4 469.9 61 469.2 62 467.9C63.2 466.3 62.2 465.1 60.7 464.4C59.6 464 58.7 463.6 57.3 463C57.9 462.3 58.3 461.4 58.8 461.1C61.6 459.7 60.9 457.6 60.5 455.4C60.4 454.1 60.4 453 60.5 451.7C60.6 449.9 60.8 448.2 60.9 446.5L60.1 446.3C60.6 446 61.1 445.6 61.4 445.1C61.8 444.5 62 443.8 62 443.1C61.8 442.6 60.9 442.1 60.3 441.8C59.9 441.7 59.2 441.8 58.8 441.7C58.3 441.4 57.7 441.1 57.2 440.6C57.5 440.2 57.9 439.8 58.4 439.4C60.5 438.1 60.5 437.9 59.6 437.1C58.9 433.7 58.4 431.3 57.9 428.9C57.6 427.6 57.2 426.5 56.8 425.3C56.5 424.3 56.1 423.5 55.7 422.5C55.3 420.9 54.9 419.2 54.4 417.5C54.3 417 54.4 416.3 54.1 416C51.9 413.7 52.5 410.9 52.8 408.3C53.1 405.7 52.6 403.7 49.7 403.2C51.2 399.2 50.1 395.8 48.5 392.3C47.4 389.7 46.8 386.9 46.7 384C46.3 378.4 46.4 378.4 41 376.6L45.1 374.1V373.4C44 373.4 43.1 373.4 42 373.4C41.2 373.4 40 373.9 39.6 373.5C38.9 372.7 38.2 371.7 37.8 370.6C38.5 370.1 39.3 369.6 40.1 369.3C40.8 369.2 41.6 368.9 42.3 368.5C41.3 368.4 40.5 368.2 39.7 367.8C39 367.2 38.2 366.5 37.6 365.7C38.6 365.4 39.5 365 40.5 364.6C40.7 364.5 41.1 364.9 41.5 364.8C42 364.7 42.7 364.4 43.2 364.2C42.9 363.7 42.5 363.2 42 362.8C41.7 362.6 41.2 362.7 40.7 362.6C37.5 362.1 37.5 361.3 38.9 358.6C40 356.5 40.3 353.7 40.7 351.3C40.9 350 40.9 348.7 40.6 347.4C40.2 346.3 39.4 345.4 38.5 344.8C37.3 344.3 36.8 342.9 37.3 341.7C37.6 339.9 37.6 338 37.2 336.2C36.8 333.4 37.9 330.4 34.9 328.3C34.3 327.9 34.7 326 34.5 324.7C34.3 323.4 34.1 322.3 33.8 321C33.3 319.3 32.7 317.6 32.3 315.8C31.6 312.9 31.2 310 30.5 307.1C30 305.6 29.2 304.2 28.4 302.9C29.9 301.8 29.1 300.1 28.7 298.1C27.9 293.9 27.9 289.5 27.5 285.2C27.3 283.1 27.5 280.9 27.2 278.7C27 277.7 26.6 277 25.9 276.3L27 272C27.2 271.2 27.3 269.7 27.7 269.6C29 269.4 30.1 269.4 31.4 269.5L30.7 270.3C31.3 272.5 32.1 274.7 32.6 277C33.6 280.8 34.3 284.6 35.2 288.3C35.7 290.6 36.5 292.9 36.9 295.2C37.7 299.3 38.4 303.6 39.1 307.7C39.4 309.2 39.9 310.7 40.2 312.1C40.6 315.2 40.8 318.1 41.2 321.2C41.6 325.2 41.6 325.2 45.4 324.6C45.8 324.6 46.4 324.8 46.9 325.4C46.3 325.5 45.6 325.7 45 325.9C44.3 326.2 43.1 326.7 43.1 327.1C43.1 327.9 43.5 328.8 44.3 329.3C46.1 330 46.2 330.9 46.3 332.7C46.5 337.5 47.3 342.3 48.4 347C49.2 350.1 51.5 352.8 53.1 355.7C54.4 357.9 54.7 359.9 52.9 362.1C52.6 362.4 52.3 363.1 52.4 363.2C53.9 365.2 53 367.3 53 369.5C53 370.2 54.4 371.1 55.1 371.9C52.9 373.9 53.9 376.8 54.6 379.1C55.4 382.2 57.2 384.9 58.4 387.9C58.7 388.9 58.8 389.9 58.6 390.9C58.4 392.4 57.4 393.9 57.4 395.3C57.5 397 57.9 398.7 58.5 400.3C58.8 401.1 59.1 402 59.5 402.8C59.9 405.8 60.6 406.1 62.9 404.5C64.5 403.2 66.8 403.3 68.2 404.8C66.8 406.5 66.9 408 67.6 410.1C68 411.9 68.1 413.8 69 415.6C69.2 416.1 68.4 417 68 417.7C70.8 419.8 70.1 424.9 67.9 427.8C73 431.5 67.1 435.7 68.5 440L63.3 441.2C65 442.4 66.9 443.6 68.8 444.9C70.1 445.7 70 446.6 69.6 448C69.3 449.6 69.2 451.6 69.9 452.8C72.4 456.6 73.5 461.2 73 465.7C73 466.4 73.1 467.2 73.4 467.9C74.7 471 76 473.9 77.2 477C77.5 478.2 77.6 479.3 77.6 480.5C77.9 483.7 77.9 486.9 78.3 490C78.7 493 79.4 495.8 80.2 498.7C80.4 499.4 81.7 499.8 82.5 500.4C82.9 499.7 83.2 498.8 83.5 498C83.6 495.9 83.5 493.8 83.5 491.6C83.6 490.8 83.7 489.9 84 489.2C84.2 488.9 84.6 488.6 84.6 488.1C84.8 485.9 85 483.5 85.1 481.2C85.3 478.7 85.4 476.1 85.3 473.6C85.3 471.7 84.8 470 86.6 468.7C86.8 468.6 86.6 467.6 86.4 467.3C84 464.8 85.3 461.7 85.4 458.8C85.4 458.2 86.9 457.3 87.8 456.9C88.9 456.6 90 456.4 91.1 456.4C94.4 456 94.6 456.6 94.5 459.9C94.4 463.8 93.7 467.8 95.2 471.7C95.6 472.4 96.5 473 97.3 473.1C97.7 473.1 98.7 472 98.7 471.4C98.6 467.6 98.3 463.8 98.1 460C98.1 458.5 97.9 456.9 97.6 455.4C97.2 453.7 96.4 453.7 94.6 454.2C92.2 454.9 89.3 454.6 86.7 454.3C86.1 454.2 85.2 452.3 85.1 451.1C84.7 446.9 84.6 442.5 84.6 438.3C84.6 436.1 83.2 433.3 86.3 431.7C86.6 431.6 86.5 430.4 86.5 429.8C86.5 425 86.2 420.2 86.7 415.4C86.8 413.5 88.7 411.8 89.8 410.1C90.2 409.6 90.6 409 91.1 408.5C89.2 408.2 87.6 408 86.1 407.7C84.9 407.5 83.8 407.3 84.2 405.5C84.3 405 83.9 404.4 83.7 403.8C82.6 400.9 83.2 400.1 85.8 398.5C87 397.7 87.7 396.4 87.9 394.9C88 393.2 87.1 391.3 86.8 389.5C86.4 386.4 86.3 383.2 86 380.2C85.9 378.7 85.7 377.3 85.4 375.9C84.6 372 82.5 368.3 83.5 363.9C83.8 362.5 82.9 360.7 82 359.3C79.7 355.4 78.1 351.5 78.5 346.9C78.5 345.8 78.5 344.9 78.4 343.8C78.4 342.1 78.4 340.4 78.4 338.6L79.2 338.5L77 336.5C78.7 335.1 78.5 333.5 77.8 331.6C77.3 330.1 77.8 328.3 77.5 326.6C77.2 324.7 76.4 323 76 321.1C75.7 320.3 75.7 319.4 75.9 318.6C77.2 315.6 74.8 313.4 74.2 311C73.6 309.1 72.8 307.3 71.9 305.5C71.5 304.7 70.9 303.9 70.5 303.1C72.3 300 72 298.9 69 296.6C68.3 296.1 67.3 294.7 67.5 294.1C67.9 293.1 69.2 292.5 69.9 291.9C70.2 289.8 70.6 287.7 71.2 285.6C71.4 284.9 72.6 284.5 73.3 284C73.7 283.6 74.6 283 74.6 282.6C74.4 282 74 281.4 73.3 281.2C70.8 280.8 70.4 279.3 70.4 277C70.2 275 69.8 273.1 69 271.3C68.9 271 67.3 270.7 67.2 270.8C66.4 272.3 65.6 273.9 65 275.5C64.8 276 65 276.7 64.8 277.2C64.4 278.6 63.8 280 63.2 281.2C62.4 282.2 61.5 283 60.4 283.7C60 282.9 59.1 281.8 59.3 281.1C59.8 278.9 60.9 276.9 61.7 274.6C62 273.9 62.2 273.1 62.3 272.3C62.3 269.1 62.7 268.7 66 269.1C67 269.2 67.9 269.1 68.8 269V267C68 267 67.1 266.9 66.3 266.8C65.7 266.7 64.8 266.4 64.6 266C64.5 265.4 64.7 264.7 65.1 264.3C66.9 262.9 66.7 261.3 65.8 259.5C65.5 258.8 65.3 257.9 65.2 257.1C64.7 253.9 64.1 250.7 63.7 247.6C63.6 246.5 63.6 245.4 63.7 244.3C63.9 240.9 65 237.2 64.2 234C63.7 231.5 63.4 228.9 63.4 226.4C63.2 220.8 62.7 215.1 62.9 209.3C63.1 203.5 63.7 197.6 64.7 191.8C65.2 188.1 66.6 184.4 67.7 180.8C68.1 179.4 68.8 178.2 67.6 176.7C67.1 176.1 67.5 174.7 67.6 173.7C68.1 170.6 68.7 167.6 69.4 164.5C70 161.6 71 159 71.3 156.1C71.4 154.4 70.6 152.6 70 150.7C66.9 152.6 65.2 157.2 65.7 160.6C65.8 162 65.2 163.6 64.7 165C64.5 165.7 64.1 166.4 63.6 167C63.2 167.6 62.6 168.3 62.2 169C61.4 168.3 59.6 167.4 59.6 166.8C59.9 162.6 60.8 158.3 61.3 154.1C61.5 153.1 61.5 152.2 61.2 151.2C59.6 147.2 58.3 143.3 60.4 139.1C60.9 138.3 61.7 137.6 62.6 137.4C64.6 137.2 65.2 135.9 65.5 133.8H60.2V132.8C61.5 132.8 62.8 132.9 64.1 132.8C64.9 132.7 66 132.6 66.3 132.1C66.7 131.4 66.7 130.5 66.4 129.8C66.2 129.4 64.9 129.4 64.2 129.5C62.1 129.9 60.3 129.7 59.4 127.3C59 126.6 58.4 125.8 57.8 125.3C58.2 124.5 58.6 123.7 59.2 123C59.6 122.4 60.5 121.5 61 121.5C62 121.6 62.7 122.1 63.3 122.9C64.1 124.2 64.9 125.4 65.5 126.8C66 125.8 66.7 125.4 66.6 125C66.3 122.9 65.8 120.8 65.1 118.6C65 118.2 63.6 117.9 62.9 118.1C61.3 118.5 59.7 119.2 58.1 119.7C56.4 120.2 54.2 119.7 53.4 122.1C53.3 122.3 52.2 122.4 51.7 122.5C50.6 118.7 52.9 116.9 55.4 115.1C54.3 114.5 53.4 113.6 52.5 112.8C52 111.8 51.5 110.7 51.2 109.6C50.9 108.9 50.9 107.9 50.4 107.5C47 104.7 43.9 101 38.7 101.9C38.5 101.9 38.3 101.7 37.9 101.3L41 100.6C41.1 99.9002 41.2 99.2002 41.3 98.6002C41.7 96.1002 39.9 94.5002 37.5 95.1002C35.1 95.7002 32.7 96.1002 30.8 93.6002C30.4 93.0002 29.1 93.0002 28.3 92.6002C26.8 92.1002 25.1 92.1002 25.1 89.4002C24.8 87.2002 26.3 85.3002 28.4 85.0002C31.7 84.2002 35.2 84.8002 37.9 86.7002C39.9 88.0002 42.1 88.8002 44.3 89.9002C45.4 90.4002 46.3 91.1002 47.3 91.8002C51 94.7002 52.7 94.7002 56.6 91.3002L54 89.5002C54.8 89.3002 55.6 89.1002 56.4 88.9002C61.4 88.5002 62.4 87.4002 62.5 82.3002C62.5 79.3002 64.8 77.0002 67.8 77.0002C68.2 77.0002 69.1 77.0002 69.1 77.1002C69.9 80.1002 73.5 79.6002 75.2 82.1002C72.2 83.3002 72.9 85.8002 72.9 88.0002C72.9 91.1002 72.7 94.1002 72.8 97.2002C72.8 98.2002 73.5 99.1002 73.6 100.1C74 103.5 74.1 106.9 75.9 110C76.4 110.6 77.3 111.1 78.1 111.2C78.9 111.4 80 110.8 80.9 111C82.4 111.3 83.1 112.3 81.9 113.8C81.5 114.2 80.9 114.5 80.6 115.1C79.6 116.4 79.9 117.5 81.3 117.9C83.4 118.2 85.5 118.3 87.7 118.1C88.1 118.1 89 116.6 88.9 115.9C88.2 111.7 87.2 107.4 86.4 103.1C86.4 102.9 86.1 102.6 86.2 102.4C86.8 100 86.9 97.5002 86.5 95.1002C86.1 92.2002 85.4 89.3002 82.8 87.8002C82 87.2002 81.1 86.4002 80.5 85.6002C78.1 83.0002 75.6 80.3002 73.3 77.5002C72.7 76.8002 72.2 75.8002 72.2 74.9002C72.3 73.2002 71.8 72.1002 70.1 71.6002C66.8 70.6002 65.5 68.7002 65.9 65.1002C66.1 62.6002 65.3 59.9002 64.8 57.0002C66.7 56.6002 68.7 55.9002 70.7 55.6002C71 55.6002 72 56.9002 72 57.5002C72 61.1002 71.8 64.6002 71.8 68.2002C71.8 68.9002 72.6 70.2002 73.2 70.2002C74.3 70.2002 75.2 69.7002 75.7 68.8002C77.1 66.5002 78.1 63.9002 79.5 61.6002C80.1 60.3002 81.2 59.4002 82 58.2002C83.1 56.7002 84 55.2002 85.1 53.8002C85.5 53.2002 86.2 52.6002 86.8 52.2002C88.3 51.2002 89.9 50.5002 92.2 49.3002C88.7 48.0002 88.1 46.1002 89 43.4002C89.1 43.1002 87.6 41.9002 86.7 41.5002C85.2 40.9002 83.7 40.3002 82.3 39.9002L82.4 38.8002C84.3 38.6002 86.2 38.5002 88.1 38.5002C89.8 38.6002 91 38.9002 92.1 37.0002C93.4 35.1002 95.7 34.1002 97.9 34.8002C101.3 35.6002 104.3 34.2002 107 31.8002L102.8 31.2002L102.5 30.4002L110 26.0002C109.3 25.5002 108.6 24.8002 108.1 24.2002C107.9 23.7002 108 22.5002 108.3 22.4002C108.9 22.2002 109.7 22.2002 110.3 22.4002C110.8 25.4002 113.3 24.8002 115.3 25.3002C115.6 25.4002 115.8 25.6002 116.4 26.0002L113.9 27.6002V28.1002C115.3 28.1002 116.5 28.1002 117.9 28.1002C120.2 28.1002 122.5 28.0002 124.8 27.8002C127.1 27.5002 129.6 27.0002 131.8 26.0002C138.8 22.8002 145.7 19.5002 152.5 16.2002V0.700195H0V897.8H153V888.2C152.5 887.9 152 887.7 151.5 887.5C148.1 885.8 144.6 884.3 141.1 882.6ZM77.1 637.9C78.9 637.2 81 637.6 82.4 639C82.2 639.4 82.2 639.6 82.2 639.6C80.7 640.8 78.5 640.7 77.1 639.4C76.9 638.9 76.9 638.3 77.1 637.9ZM66.1 494.6C64.7 495.9 63.2 496.1 61.2 494.6C62.7 493.1 64 492.1 65.8 493.3C66.1 493.7 66.2 494.2 66.1 494.6ZM62.9 543.3C62.4 543.7 61.8 544.1 60.6 545.4C60.3 544.6 59.8 543.8 60 543.5C60.5 542.9 61.1 542.4 61.9 542.2C62 542.2 62.5 542.9 62.9 543.3ZM62.2 481.5C63.9 483.8 65.2 486.4 66.2 489C66.5 489.6 65.9 491.4 65.5 491.4C64.2 491.6 62.9 491.5 61.7 491.1C61.4 491 61.3 489.6 61.4 488.8C61.7 485.9 60.3 483.9 57.7 482.4C59 480.2 60.9 479.9 62.2 481.5ZM59.3 569.6C59.5 570.3 60.7 570.7 61.5 571.1C63.9 572.5 64.1 574.4 61.8 576.1C60.2 577.2 58.7 578.2 57.2 579.4C56.8 579.9 56.4 580.6 56 581.2L61.9 582C60.1 584.9 55.2 587.2 53.2 586.1C52.4 585.7 51.4 584.8 51.3 584.1C51.2 583.4 52.4 582.7 53 582C53.4 581.7 53.8 581.4 54.3 581.2L51.8 579L54.6 576.4C53.9 575.4 53.2 574.4 52.6 573.3C51.9 571.8 50.6 570.1 50.7 568.6C50.8 566 50.3 562.7 53.7 561.1C55.9 560 57 560.8 57.5 563C57.8 565.2 58.5 567.4 59.3 569.6ZM55.6 524.3C56.2 524.7 56.9 525.1 57.5 525.6L55.5 528.1L54.3 527.4L55.6 524.3ZM50.5 545.8C52.8 544.4 53.8 542.2 54.4 539.8C54.5 539.4 55 539.1 55.4 538.7C57.9 541.5 57.7 543 54.2 544.7C56.1 546.2 56.7 548 55 550.1C54.8 550.6 54.9 551.2 55.2 551.7C55.9 553 55.9 553.9 54.4 554.5C52.6 555.1 50.3 554.4 50.2 552.9C50 551.1 49.9 549.4 49.9 547.6C49.8 547 50.1 546.3 50.5 545.8ZM77.3 355.4C78 355.5 78.8 355.7 79.4 356L79.5 356.7C79 357 78.3 357.5 77.7 357.5C77.2 357.5 76.5 356.8 76 356.4C76.5 356.1 76.9 355.4 77.3 355.4ZM72.8 374.7C73.3 376.4 73.9 378.2 74.2 380C74.4 381.5 74.5 383 74.8 384.4C74.8 384.8 74.6 385.4 74.8 385.7C75.9 387.7 76.9 389.8 78.1 392C76.5 393.8 76.6 395.3 78.1 397.5C79.9 400.4 81.7 403.5 81.6 407.4C81.6 408.7 82.3 409.9 82.7 411.2C82.8 411.7 82.8 412.3 82.8 412.8C82.8 413.5 82.7 414.4 82.7 415.2C82.8 417.3 83.1 419.4 83.1 421.6C83.1 423.1 80.7 424 78.9 423C76.8 421.7 74.2 420.4 73.3 418.3C72.5 416.6 73.5 414 73.8 411.7C74 410.1 74.4 408.4 74.8 406.8V406.6C72.5 404.3 73.4 401.3 73 398.5C72.9 397.7 73 396.7 72.9 395.7C72.8 394.7 72.6 393.3 72.3 393.3C71.2 393.2 70.1 393.3 69 393.7C68.5 393.9 68 394.2 67.6 394.5C68 396.1 68.2 397.6 68.4 399.2C68.4 399.8 68 401.2 67.7 401.2C66.7 401.2 65.8 401 64.9 400.5C64.3 399.9 63.8 398.9 63.8 398C63.8 397.4 64.6 396.7 65.2 395.9C62.6 395.3 62.3 393.7 62.8 391.3C63.1 389.7 62.1 388 61.8 386.3C61.3 381.6 60.7 376.9 60.4 372.2C60.4 371.8 61.8 370.7 62.3 370.8C65.5 371.4 68.6 372.3 71.6 373.1C72.1 373.5 72.6 374 72.8 374.7ZM71 367.9C71.1 368.5 71.3 369.2 71.3 370C71.5 370.5 71.6 371.2 71.7 371.7C71 371.7 69.9 372 69.6 371.7C67.6 369.6 65.2 369.7 62.5 369.7C61.8 369.7 60.5 368.6 60.5 368.2C60.7 367.2 61.2 366.4 62 365.8C62.7 365.3 63.9 365.3 64.5 364.7C65.1 364.1 65 363.2 65.2 362.5C65.2 362.2 65 361.7 65.1 361.3C65.9 358.2 64.3 356.3 61 356.6C59.7 356.7 58.1 357.2 58 355C58 354.3 57.7 353.4 57.6 352.7L60.2 352.8C60.9 352.8 61.8 352.9 62.5 352.9C62.6 351.8 62.5 350.9 62.3 349.9C62 349.3 61.1 348.7 60.4 348.3C60.2 348.1 59.7 348.6 59.2 348.5C58.5 348.3 57.7 348.1 57 347.8C57.4 347 57.7 346 58.2 345.2C58.8 345.6 59.5 346 60 346.5C60.3 346.7 60.3 347.2 60.5 347.7C62.1 344 61.6 343.4 58.4 343C59.2 342.2 60.1 341.2 60.9 340.1C62.3 338.4 64.7 338 66 339.8C67.2 341.6 68.1 343.6 68.8 345.6C69.2 347.2 69.6 348.8 69.9 350.5C69.8 353.9 70.1 356.6 69.6 359.2C69 362.4 70.9 364.9 71 367.9ZM61.5 337.1V336L64.8 335.9V337.1H61.5V337.1ZM66.3 308.3C67.8 309.5 69.1 310.7 70.3 312.1C71.3 313.3 70.5 314.4 69.1 314.4C67.9 314.4 66.2 314.2 65.7 313.3C64.7 311.8 65.3 309.8 66.3 308.3ZM64.6 329.7C65.9 330 66.6 331.1 65.8 332.5C65.2 333.5 64.3 334.4 63 336C61.9 334.6 61.4 334 61 333.2C60.6 332.6 60.3 331.9 60.2 331.2C60.2 330.5 60.2 329.6 60.3 328.9C61.6 329 63.1 329.2 64.6 329.7ZM60.7 173.9C61.2 173.9 61.7 174.4 62.8 175.2C61.4 175.7 60.8 176.2 60.2 176C59.6 176 59.2 175.4 59 174.8C59.5 174.6 60.1 174 60.7 173.9ZM54.2 255C53.6 255.7 53.1 256.6 52.4 257C51.6 257.3 50.6 257.4 49.8 257.4C49.6 257.4 49.3 257 49.3 257C50.8 255.1 48.6 253.1 49.3 251.3C49.8 250.8 50.6 250.5 51.3 250.3C52.3 251.7 53.2 253.3 54.2 255ZM53.3 122.9C53.7 123.4 53.8 124.2 53.6 124.8C52.2 126.1 50.6 126.1 48.7 124.7C50.3 123.3 51.4 121.9 53.3 122.9ZM48.3 131.4C48.7 130.4 48.7 129.3 49.1 128.2C49.4 127.5 50.1 126.5 50.7 126.4C51.7 126.4 52.6 126.7 53.3 127.4C53.6 127.6 53.1 128.9 52.9 129.6C52.7 130.3 52.4 131.1 51.9 131.8C51.4 132.4 50.8 133.1 50.3 133.7C48.5 133.5 47.3 133.2 48.3 131.4ZM49.5 209.3C50.5 209.3 51.3 210.3 52.3 210.8L49.3 213L46.7 210.8C47.6 210.3 48.5 209.3 49.5 209.3ZM44.4 317.9C45.5 316.3 47.3 315.3 48.8 314.5C49.3 314.1 49.9 313.8 50.5 313.5L49.5 311.5C49.7 311.3 49.8 311.1 50 311C52 310.3 52.1 308.8 52 306.9C51.7 303.3 51.7 299.6 51.9 296C52.1 293.9 51.7 293 49.7 292.7C49.3 292.7 49 292.3 48.4 292L51.2 290.1V289.4C49.9 289.1 48.8 289 47.5 288.7C45.9 288.4 45 288 46.2 285.9C47.5 283.7 48.5 281.5 49.4 279C49.5 278.6 49.2 277.8 49.2 277.3C49.2 276.3 49.4 275.4 49.7 274.5C50.3 274.2 51 274.2 51.6 274.5C51.9 275.3 52 276.2 52 277.1C52 277.4 51.9 277.6 51.9 277.9L54.1 279.4C52.8 281.5 53.9 282.5 55.9 283C56.3 283.1 56.7 283.7 57 284.2C57.5 285 57.8 286 58.2 286.6C58.4 287.6 58.5 288.5 58.5 289.6C58.5 290.8 58.3 291.9 58 293.1C57.3 294.5 57.3 296.2 58.1 297.4C58.8 298.7 58.8 300.5 59.2 302.1C59.5 303.9 58.9 306 60.9 307.2C59.9 310.4 62.2 313.2 62.1 316.2C62 318.3 61 320.3 59.6 321.8C58.8 322.6 56.2 322.5 54.7 322C52.2 320.9 49.8 320.5 47.4 322.7C46.9 322.1 46.7 321.6 46.4 321.3C45.7 320.2 44.1 318.4 44.4 317.9ZM78.3 103.5H82.2L82.1 105.1L78.2 104.7L78.3 103.5ZM119 17.1002C120.4 18.6002 122 19.7002 121.8 20.3002C121.3 21.5002 120.3 22.3002 119.2 22.7002C118.7 22.8002 117.1 21.3002 116.9 20.5002C116.6 19.7002 117.9 18.7002 119 17.1002ZM82.9 23.6002C81.1 25.2002 72.1 25.1002 69.9 23.4002C73.2 20.6002 80.3 20.8002 82.9 23.6002ZM67.2 37.4002C68.6 37.6002 70.1 37.7002 71.4 38.0002C73.1 38.4002 74.8 39.2002 76.5 39.5002C81.8 40.6002 83.3 42.9002 81.8 48.0002C81.2 50.0002 80.4 52.0002 79.5 54.0002C79.1 54.6002 78.4 55.1002 77.6 55.2002C76.9 54.9002 76.2 54.2002 76.1 53.5002C76 50.7002 74.6 49.4002 72 48.8002C69.5 48.3002 68.8 46.4002 69 44.1002C69.3 40.6002 69.3 40.6002 67.2 38.3002V37.4002ZM44.6 84.4002C46.3 84.2002 48 84.1002 49.7 84.2002C50.7 84.5002 51.5 85.2002 52 86.1002C52.2 86.4002 51.5 87.7002 50.8 88.0002C49.8 88.5002 48.5 89.1002 47.6 88.6002C46.2 87.9002 45 86.9002 43.8 85.8002L44.6 84.4002ZM31.1 50.1002C32.2 49.9002 33.1 49.7002 34.2 49.8002C37 50.4002 39 49.3002 41.1 47.9002C41.7 47.7002 42.5 47.6002 43.2 47.6002C43 48.3002 43 49.5002 42.5 49.7002C40.7 50.5002 38.9 51.2002 37 51.8002C36.8 52.1002 36.8 53.5002 36.3 53.7002C35.3 54.1002 33.9 54.9002 33.4 52.6002C33.3 51.9002 32 51.3002 31.2 50.7002V50.1002H31.1ZM20.4 217.7L23.5 218C23.5 218.4 23.4 218.8 23.4 219.3C22.3 219.3 21.3 219.3 20.3 219.2L20.4 217.7ZM24.3 257.6C24.5 257 24.3 256.4 24 256C21.9 254.6 22.4 252.5 22.1 250.5C21.7 248.2 21 246.1 20.7 243.8C20.6 242.7 20.7 241.7 21.1 240.7C21.9 238.7 22.4 236.9 20.6 235.1C20.2 234.5 20.2 233.7 20.5 233.1C21.7 232 21.3 231.2 20.4 230.1C19.4 229 20.1 223.4 21.1 222C22.6 220.3 25.1 219.8 27.1 220.8C27.7 221.4 28.2 222.3 28.3 223.1C28.5 225.7 28.4 228.5 28.6 231.2C28.7 233.1 29.1 234.9 29.2 236.8C29.7 244.4 30 252 30.5 259.6C30.6 261.6 29.4 262 28.1 262.2C25.2 262.4 23.5 260.1 24.3 257.6ZM39.9 393C40.6 393 41.3 393.8 42 394.4L40.3 396.6L37.8 394.5C38.4 394 39.2 393.1 39.9 393ZM37.5 552.8C38 553.2 38.5 554.9 38.1 555.1C36.6 556.3 35 556.1 33.4 554.4C34.7 553.3 35.6 551.4 37.5 552.8ZM32.9 571.8C32.8 571.1 33.6 569.4 34.1 569.4C35.4 569.4 37.3 569.6 37.8 570.5C38.5 571.7 38.5 573.6 38.9 575.2C38.9 575.8 38.7 576.5 38.4 577.1C37.9 577.7 37 578.6 36.4 578.6C35.8 578.5 34.9 577.6 34.6 576.9C33.8 575.2 33.3 573.5 32.9 571.8ZM70.3 859.1C70 860.1 68.8 860.8 68.5 861.1C65.9 860.8 63.9 860.1 64.2 857.9C64.2 857.2 65.8 856.1 66.7 856C68.4 855.8 70.7 857.8 70.3 859.1Z" fill="#C6C6C6"/>
</svg>
