<svg width="50" height="36" viewBox="0 0 50 36" fill="none" xmlns="http://www.w3.org/2000/svg">
<path d="M5 5.5H45" stroke="#5F4F1E" stroke-width="2"/>
<path d="M8.53712 1.75L5.88712 4.40125C5.7709 4.51734 5.6787 4.6552 5.61579 4.80695C5.55289 4.9587 5.52051 5.12135 5.52051 5.28562C5.52051 5.44989 5.55289 5.61255 5.61579 5.7643C5.6787 5.91605 5.7709 6.05391 5.88712 6.17L8.53837 8.82" stroke="#5F4F1E" stroke-width="2" stroke-linecap="round"/>
<path d="M41.4629 8.82125L44.1141 6.16875C44.3485 5.93434 44.4801 5.61646 44.4801 5.285C44.4801 4.95355 44.3485 4.63566 44.1141 4.40125L41.4629 1.75" stroke="#5F4F1E" stroke-width="2" stroke-linecap="round"/>
<path d="M12.5 19.875C12.5 20.7038 12.1708 21.4987 11.5847 22.0847C10.9987 22.6708 10.2038 23 9.375 23C8.5462 23 7.75134 22.6708 7.16529 22.0847C6.57924 21.4987 6.25 20.7038 6.25 19.875C6.25 19.0462 6.57924 18.2513 7.16529 17.6653C7.75134 17.0792 8.5462 16.75 9.375 16.75C10.2038 16.75 10.9987 17.0792 11.5847 17.6653C12.1708 18.2513 12.5 19.0462 12.5 19.875Z" fill="#5F4F1E" stroke="#5F4F1E" stroke-width="2"/>
<path d="M1.25 30.8337C1.25 29.8675 2.13625 28.8388 4.0325 27.9738C5.8225 27.1588 7.99 26.75 9.375 26.75C10.76 26.75 12.9275 27.1575 14.7175 27.975C16.6125 28.8375 17.5 29.8662 17.5 30.8325V34.25H1.25V30.8337Z" fill="#5F4F1E" stroke="#5F4F1E" stroke-width="2"/>
<path d="M43.75 19.875C43.75 20.7038 43.4208 21.4987 42.8347 22.0847C42.2487 22.6708 41.4538 23 40.625 23C39.7962 23 39.0013 22.6708 38.4153 22.0847C37.8292 21.4987 37.5 20.7038 37.5 19.875C37.5 19.0462 37.8292 18.2513 38.4153 17.6653C39.0013 17.0792 39.7962 16.75 40.625 16.75C41.4538 16.75 42.2487 17.0792 42.8347 17.6653C43.4208 18.2513 43.75 19.0462 43.75 19.875Z" fill="#5F4F1E" stroke="#5F4F1E" stroke-width="2"/>
<path d="M32.5 30.8337C32.5 29.8675 33.3863 28.8388 35.2825 27.9738C37.0725 27.1588 39.24 26.75 40.625 26.75C42.01 26.75 44.1775 27.1575 45.9675 27.975C47.8625 28.8375 48.75 29.8662 48.75 30.8325V34.25H32.5V30.8337Z" fill="#5F4F1E" stroke="#5F4F1E" stroke-width="2"/>
</svg>
