<svg width="34" height="46" viewBox="0 0 34 46" fill="none" xmlns="http://www.w3.org/2000/svg">
<path fill-rule="evenodd" clip-rule="evenodd" d="M2.46004 6.745C2.82504 6.1075 3.53004 5.12 4.41004 4.31C5.31754 3.47375 6.22004 3 7.00004 3H15.75V10.5H10.75C10.087 10.5 9.45111 10.7634 8.98227 11.2322C8.51343 11.7011 8.25004 12.337 8.25004 13V16.75H7.00004C5.34244 16.75 3.75272 17.4085 2.58062 18.5806C1.40852 19.7527 0.750039 21.3424 0.750039 23V43C0.750039 43.663 1.01343 44.2989 1.48227 44.7678C1.95111 45.2366 2.587 45.5 3.25004 45.5H30.75C31.4131 45.5 32.049 45.2366 32.5178 44.7678C32.9866 44.2989 33.25 43.663 33.25 43V23C33.25 21.3424 32.5916 19.7527 31.4195 18.5806C30.2474 17.4085 28.6576 16.75 27 16.75H25.75V13C25.75 12.337 25.4866 11.7011 25.0178 11.2322C24.549 10.7634 23.9131 10.5 23.25 10.5H18.25V3H28.25V0.5H7.00004C5.28004 0.5 3.78754 1.48375 2.71504 2.47125C1.61504 3.48375 0.758789 4.68375 0.290039 5.505L2.46004 6.745ZM9.50004 29.25H15.75V23H18.25V29.25H24.5V31.75H18.25V38H15.75V31.75H9.50004V29.25Z" fill="#5F4F1E"/>
</svg>
