<svg width="50" height="34" viewBox="0 0 50 34" fill="none" xmlns="http://www.w3.org/2000/svg">
<path fill-rule="evenodd" clip-rule="evenodd" d="M24.6325 0.805313C24.8725 0.731562 25.1275 0.731562 25.3675 0.805313L41.6175 5.80531C41.8731 5.88392 42.0967 6.04241 42.2555 6.25749C42.4144 6.47258 42.5 6.73293 42.5 7.00031V8.25031H43.75C45.4076 8.25031 46.9973 8.90879 48.1694 10.0809C49.3415 11.253 50 12.8427 50 14.5003V19.5003C50 21.1579 49.3415 22.7476 48.1694 23.9197C46.9973 25.0918 45.4076 25.7503 43.75 25.7503H40.68C39.2438 27.959 37.0772 29.5929 34.5587 30.3666L25.3675 33.1953C25.128 33.2689 24.872 33.2689 24.6325 33.1953L15.4412 30.3666C12.9228 29.5929 10.7562 27.959 9.32 25.7503H6.25C4.5924 25.7503 3.00268 25.0918 1.83058 23.9197C0.65848 22.7476 0 21.1579 0 19.5003V14.5003C0 12.8427 0.65848 11.253 1.83058 10.0809C3.00268 8.90879 4.5924 8.25031 6.25 8.25031H7.5V7.00031C7.49995 6.73293 7.58563 6.47258 7.74447 6.25749C7.90331 6.04241 8.12694 5.88392 8.3825 5.80531L24.6325 0.805313ZM7.5 19.6141C7.5 20.8766 7.71 22.1016 8.1025 23.2503H6.25C5.25544 23.2503 4.30161 22.8552 3.59835 22.152C2.89509 21.4487 2.5 20.4949 2.5 19.5003V14.5003C2.5 13.5058 2.89509 12.5519 3.59835 11.8487C4.30161 11.1454 5.25544 10.7503 6.25 10.7503H7.5V19.6141ZM41.8975 23.2503H43.75C44.7446 23.2503 45.6984 22.8552 46.4016 22.152C47.1049 21.4487 47.5 20.4949 47.5 19.5003V14.5003C47.5 13.5058 47.1049 12.5519 46.4016 11.8487C45.6984 11.1454 44.7446 10.7503 43.75 10.7503H42.5V19.6141C42.5 20.8766 42.29 22.1016 41.8975 23.2503ZM32.5 13.2503H17.5V10.7503H32.5V13.2503ZM32.5 20.7503H17.5V18.2503H32.5V20.7503Z" fill="#5F4F1E"/>
</svg>
