<svg width="347" height="78" viewBox="0 0 347 78" fill="none" xmlns="http://www.w3.org/2000/svg">
<path fill-rule="evenodd" clip-rule="evenodd" d="M51.6325 13.8053C51.8725 13.7316 52.1275 13.7316 52.3675 13.8053L68.6175 18.8053C68.8731 18.8839 69.0967 19.0424 69.2555 19.2575C69.4144 19.4726 69.5 19.7329 69.5 20.0003V21.2503H70.75C72.4076 21.2503 73.9973 21.9088 75.1694 23.0809C76.3415 24.253 77 25.8427 77 27.5003V32.5003C77 34.1579 76.3415 35.7476 75.1694 36.9197C73.9973 38.0918 72.4076 38.7503 70.75 38.7503H67.68C66.2438 40.959 64.0772 42.5929 61.5587 43.3666L52.3675 46.1953C52.128 46.2689 51.872 46.2689 51.6325 46.1953L42.4412 43.3666C39.9228 42.5929 37.7562 40.959 36.32 38.7503H33.25C31.5924 38.7503 30.0027 38.0918 28.8306 36.9197C27.6585 35.7476 27 34.1579 27 32.5003V27.5003C27 25.8427 27.6585 24.253 28.8306 23.0809C30.0027 21.9088 31.5924 21.2503 33.25 21.2503H34.5V20.0003C34.4999 19.7329 34.5856 19.4726 34.7445 19.2575C34.9033 19.0424 35.1269 18.8839 35.3825 18.8053L51.6325 13.8053ZM34.5 32.6141C34.5 33.8766 34.71 35.1016 35.1025 36.2503H33.25C32.2554 36.2503 31.3016 35.8552 30.5983 35.152C29.8951 34.4487 29.5 33.4949 29.5 32.5003V27.5003C29.5 26.5058 29.8951 25.5519 30.5983 24.8487C31.3016 24.1454 32.2554 23.7503 33.25 23.7503H34.5V32.6141ZM68.8975 36.2503H70.75C71.7446 36.2503 72.6984 35.8552 73.4016 35.152C74.1049 34.4487 74.5 33.4949 74.5 32.5003V27.5003C74.5 26.5058 74.1049 25.5519 73.4016 24.8487C72.6984 24.1454 71.7446 23.7503 70.75 23.7503H69.5V32.6141C69.5 33.8766 69.29 35.1016 68.8975 36.2503ZM59.5 26.2503H44.5V23.7503H59.5V26.2503ZM59.5 33.7503H44.5V31.2503H59.5V33.7503Z" fill="#3B3450"/>
<path fill-rule="evenodd" clip-rule="evenodd" d="M157.46 13.745C157.825 13.1075 158.53 12.12 159.41 11.31C160.318 10.4738 161.22 10 162 10H170.75V17.5H165.75C165.087 17.5 164.451 17.7634 163.982 18.2322C163.513 18.7011 163.25 19.337 163.25 20V23.75H162C160.342 23.75 158.753 24.4085 157.581 25.5806C156.409 26.7527 155.75 28.3424 155.75 30V50C155.75 50.663 156.013 51.2989 156.482 51.7678C156.951 52.2366 157.587 52.5 158.25 52.5H185.75C186.413 52.5 187.049 52.2366 187.518 51.7678C187.987 51.2989 188.25 50.663 188.25 50V30C188.25 28.3424 187.592 26.7527 186.419 25.5806C185.247 24.4085 183.658 23.75 182 23.75H180.75V20C180.75 19.337 180.487 18.7011 180.018 18.2322C179.549 17.7634 178.913 17.5 178.25 17.5H173.25V10H183.25V7.5H162C160.28 7.5 158.788 8.48375 157.715 9.47125C156.615 10.4838 155.759 11.6837 155.29 12.505L157.46 13.745ZM164.5 36.25H170.75V30H173.25V36.25H179.5V38.75H173.25V45H170.75V38.75H164.5V36.25Z" fill="#3B3450"/>
<path d="M272 17.5H312" stroke="#3B3450" stroke-width="2"/>
<path d="M275.537 13.75L272.887 16.4012C272.771 16.5173 272.679 16.6552 272.616 16.8069C272.553 16.9587 272.521 17.1214 272.521 17.2856C272.521 17.4499 272.553 17.6126 272.616 17.7643C272.679 17.916 272.771 18.0539 272.887 18.17L275.538 20.82" stroke="#3B3450" stroke-width="2" stroke-linecap="round"/>
<path d="M308.463 20.8213L311.114 18.1688C311.348 17.9343 311.48 17.6165 311.48 17.285C311.48 16.9535 311.348 16.6357 311.114 16.4013L308.463 13.75" stroke="#3B3450" stroke-width="2" stroke-linecap="round"/>
<path d="M279.5 31.875C279.5 32.7038 279.171 33.4987 278.585 34.0847C277.999 34.6708 277.204 35 276.375 35C275.546 35 274.751 34.6708 274.165 34.0847C273.579 33.4987 273.25 32.7038 273.25 31.875C273.25 31.0462 273.579 30.2513 274.165 29.6653C274.751 29.0792 275.546 28.75 276.375 28.75C277.204 28.75 277.999 29.0792 278.585 29.6653C279.171 30.2513 279.5 31.0462 279.5 31.875Z" fill="#3B3450" stroke="#3B3450" stroke-width="2"/>
<path d="M268.25 42.8337C268.25 41.8675 269.136 40.8388 271.032 39.9738C272.822 39.1588 274.99 38.75 276.375 38.75C277.76 38.75 279.927 39.1575 281.717 39.975C283.612 40.8375 284.5 41.8662 284.5 42.8325V46.25H268.25V42.8337Z" fill="#3B3450" stroke="#3B3450" stroke-width="2"/>
<path d="M310.75 31.875C310.75 32.7038 310.421 33.4987 309.835 34.0847C309.249 34.6708 308.454 35 307.625 35C306.796 35 306.001 34.6708 305.415 34.0847C304.829 33.4987 304.5 32.7038 304.5 31.875C304.5 31.0462 304.829 30.2513 305.415 29.6653C306.001 29.0792 306.796 28.75 307.625 28.75C308.454 28.75 309.249 29.0792 309.835 29.6653C310.421 30.2513 310.75 31.0462 310.75 31.875Z" fill="#3B3450" stroke="#3B3450" stroke-width="2"/>
<path d="M299.5 42.8337C299.5 41.8675 300.386 40.8388 302.283 39.9738C304.073 39.1588 306.24 38.75 307.625 38.75C309.01 38.75 311.177 39.1575 312.967 39.975C314.862 40.8375 315.75 41.8662 315.75 42.8325V46.25H299.5V42.8337Z" fill="#3B3450" stroke="#3B3450" stroke-width="2"/>
<path d="M4.35597 73.18C3.21197 73.18 2.34797 72.888 1.76397 72.304C1.17997 71.712 0.887969 70.9 0.887969 69.868V64.612H2.11197V69.916C2.11197 70.628 2.31197 71.168 2.71197 71.536C3.11197 71.896 3.65997 72.076 4.35597 72.076C5.04397 72.076 5.58797 71.896 5.98797 71.536C6.38797 71.168 6.58797 70.628 6.58797 69.916V64.612H7.81197V69.868C7.81197 70.892 7.51997 71.7 6.93597 72.292C6.35197 72.884 5.49197 73.18 4.35597 73.18ZM11.0173 73.18C10.6173 73.18 10.1933 73.128 9.74528 73.024C9.29728 72.928 8.94528 72.796 8.68928 72.628V71.596C9.00128 71.78 9.36128 71.932 9.76928 72.052C10.1773 72.164 10.5733 72.22 10.9573 72.22C11.3893 72.22 11.7053 72.168 11.9053 72.064C12.1053 71.96 12.2053 71.792 12.2053 71.56C12.2053 71.384 12.1573 71.244 12.0613 71.14C11.9733 71.028 11.8173 70.928 11.5933 70.84C11.3773 70.752 11.0493 70.648 10.6093 70.528C10.1373 70.392 9.76128 70.256 9.48128 70.12C9.20928 69.976 9.00128 69.796 8.85728 69.58C8.72128 69.364 8.65328 69.084 8.65328 68.74C8.65328 68.188 8.86928 67.772 9.30128 67.492C9.74128 67.204 10.3293 67.06 11.0653 67.06C11.4493 67.06 11.8253 67.096 12.1933 67.168C12.5613 67.24 12.8573 67.34 13.0813 67.468V68.476C12.8493 68.34 12.5613 68.232 12.2173 68.152C11.8813 68.072 11.5373 68.032 11.1853 68.032C10.7613 68.032 10.4373 68.084 10.2133 68.188C9.98928 68.292 9.87728 68.476 9.87728 68.74C9.87728 68.908 9.92528 69.044 10.0213 69.148C10.1173 69.252 10.2693 69.344 10.4773 69.424C10.6933 69.496 11.0333 69.592 11.4973 69.712C12.2253 69.912 12.7293 70.148 13.0093 70.42C13.2973 70.692 13.4413 71.068 13.4413 71.548C13.4413 72.044 13.2373 72.44 12.8293 72.736C12.4213 73.032 11.8173 73.18 11.0173 73.18ZM17.9324 73.18C16.8684 73.18 16.0324 72.916 15.4244 72.388C14.8244 71.852 14.5244 71.1 14.5244 70.132C14.5244 69.188 14.7924 68.44 15.3284 67.888C15.8724 67.336 16.6444 67.06 17.6444 67.06C18.3084 67.06 18.8724 67.188 19.3364 67.444C19.8004 67.692 20.1484 68.04 20.3804 68.488C20.6204 68.928 20.7404 69.432 20.7404 70V70.6H15.6764C15.7164 71.144 15.9444 71.552 16.3604 71.824C16.7844 72.088 17.3564 72.22 18.0764 72.22C18.4444 72.22 18.8164 72.188 19.1924 72.124C19.5684 72.052 19.9004 71.96 20.1884 71.848V72.82C19.9324 72.924 19.5924 73.008 19.1684 73.072C18.7524 73.144 18.3404 73.18 17.9324 73.18ZM19.6004 69.748C19.5844 69.204 19.4044 68.784 19.0604 68.488C18.7244 68.184 18.2444 68.032 17.6204 68.032C17.0124 68.032 16.5404 68.188 16.2044 68.5C15.8684 68.812 15.6924 69.228 15.6764 69.748H19.6004ZM26.5066 64.612H27.7306L30.7186 71.152L33.7066 64.612H34.9306V73H33.7426V67.036L31.0186 73H30.4186L27.6826 67.036V73H26.5066V64.612ZM39.6589 73.18C38.5949 73.18 37.7589 72.916 37.1509 72.388C36.5509 71.852 36.2509 71.1 36.2509 70.132C36.2509 69.188 36.5189 68.44 37.0549 67.888C37.5989 67.336 38.3709 67.06 39.3709 67.06C40.0349 67.06 40.5989 67.188 41.0629 67.444C41.5269 67.692 41.8749 68.04 42.1069 68.488C42.3469 68.928 42.4669 69.432 42.4669 70V70.6H37.4029C37.4429 71.144 37.6709 71.552 38.0869 71.824C38.5109 72.088 39.0829 72.22 39.8029 72.22C40.1709 72.22 40.5429 72.188 40.9189 72.124C41.2949 72.052 41.6269 71.96 41.9149 71.848V72.82C41.6589 72.924 41.3189 73.008 40.8949 73.072C40.4789 73.144 40.0669 73.18 39.6589 73.18ZM41.3269 69.748C41.3109 69.204 41.1309 68.784 40.7869 68.488C40.4509 68.184 39.9709 68.032 39.3469 68.032C38.7389 68.032 38.2669 68.188 37.9309 68.5C37.5949 68.812 37.4189 69.228 37.4029 69.748H41.3269ZM46.5757 73.18C45.9997 73.18 45.4797 73.056 45.0157 72.808C44.5597 72.552 44.1997 72.196 43.9357 71.74C43.6797 71.276 43.5517 70.74 43.5517 70.132C43.5517 69.532 43.6797 69 43.9357 68.536C44.1997 68.072 44.5597 67.712 45.0157 67.456C45.4797 67.192 45.9997 67.06 46.5757 67.06C47.6157 67.06 48.4037 67.376 48.9397 68.008V64.132H50.1517V73H48.9757V72.16C48.6557 72.512 48.3037 72.772 47.9197 72.94C47.5437 73.1 47.0957 73.18 46.5757 73.18ZM46.8517 72.22C47.3477 72.22 47.7797 72.092 48.1477 71.836C48.5237 71.572 48.7877 71.22 48.9397 70.78V69.484C48.8037 69.044 48.5437 68.692 48.1597 68.428C47.7837 68.164 47.3477 68.032 46.8517 68.032C46.4597 68.032 46.1037 68.12 45.7837 68.296C45.4717 68.472 45.2237 68.72 45.0397 69.04C44.8637 69.36 44.7757 69.724 44.7757 70.132C44.7757 70.54 44.8637 70.904 45.0397 71.224C45.2237 71.544 45.4717 71.792 45.7837 71.968C46.1037 72.136 46.4597 72.22 46.8517 72.22ZM52.4216 66.112C52.2216 66.112 52.0536 66.044 51.9176 65.908C51.7816 65.772 51.7136 65.604 51.7136 65.404C51.7136 65.204 51.7816 65.036 51.9176 64.9C52.0536 64.764 52.2216 64.696 52.4216 64.696C52.6296 64.696 52.8016 64.764 52.9376 64.9C53.0816 65.036 53.1536 65.204 53.1536 65.404C53.1536 65.604 53.0816 65.772 52.9376 65.908C52.8016 66.044 52.6296 66.112 52.4216 66.112ZM51.8096 67.24H53.0456V73H51.8096V67.24ZM57.7496 73.18C57.1096 73.18 56.5416 73.06 56.0456 72.82C55.5496 72.58 55.1616 72.232 54.8816 71.776C54.6096 71.312 54.4736 70.764 54.4736 70.132C54.4736 69.5 54.6096 68.956 54.8816 68.5C55.1616 68.036 55.5496 67.68 56.0456 67.432C56.5496 67.184 57.1256 67.06 57.7736 67.06C58.6536 67.06 59.3576 67.232 59.8856 67.576V68.572C59.3656 68.212 58.7016 68.032 57.8936 68.032C57.2376 68.032 56.7056 68.212 56.2976 68.572C55.8976 68.924 55.6976 69.444 55.6976 70.132C55.6976 70.82 55.8976 71.34 56.2976 71.692C56.6976 72.044 57.2216 72.22 57.8696 72.22C58.6776 72.22 59.3736 72.028 59.9576 71.644V72.628C59.6776 72.82 59.3576 72.96 58.9976 73.048C58.6456 73.136 58.2296 73.18 57.7496 73.18ZM63.2815 73.18C62.5855 73.18 62.0255 73.004 61.6015 72.652C61.1855 72.292 60.9775 71.808 60.9775 71.2C60.9775 70.56 61.1775 70.068 61.5775 69.724C61.9855 69.372 62.5615 69.196 63.3055 69.196C64.0975 69.196 64.7695 69.356 65.3215 69.676V69.376C65.3215 68.92 65.1815 68.584 64.9015 68.368C64.6295 68.144 64.1975 68.032 63.6055 68.032C63.2535 68.032 62.9095 68.068 62.5735 68.14C62.2455 68.204 61.9495 68.296 61.6855 68.416V67.432C61.9255 67.32 62.2375 67.232 62.6215 67.168C63.0055 67.096 63.3775 67.06 63.7375 67.06C64.6895 67.06 65.3935 67.272 65.8495 67.696C66.3135 68.112 66.5455 68.692 66.5455 69.436V73H65.4055V72.352C65.1575 72.624 64.8615 72.832 64.5175 72.976C64.1815 73.112 63.7695 73.18 63.2815 73.18ZM63.5815 72.256C63.9655 72.256 64.3135 72.18 64.6255 72.028C64.9375 71.876 65.1695 71.664 65.3215 71.392V70.612C64.8015 70.276 64.2215 70.108 63.5815 70.108C63.1175 70.108 62.7695 70.2 62.5375 70.384C62.3135 70.56 62.2015 70.832 62.2015 71.2C62.2015 71.904 62.6615 72.256 63.5815 72.256ZM68.0495 64.132H69.2615V73H68.0495V64.132ZM75.2683 64.612H76.4923L79.4803 71.152L82.4683 64.612H83.6923V73H82.5043V67.036L79.7803 73H79.1803L76.4443 67.036V73H75.2683V64.612ZM87.3167 73.18C86.6207 73.18 86.0607 73.004 85.6367 72.652C85.2207 72.292 85.0127 71.808 85.0127 71.2C85.0127 70.56 85.2127 70.068 85.6127 69.724C86.0207 69.372 86.5967 69.196 87.3407 69.196C88.1327 69.196 88.8047 69.356 89.3567 69.676V69.376C89.3567 68.92 89.2167 68.584 88.9367 68.368C88.6647 68.144 88.2327 68.032 87.6407 68.032C87.2887 68.032 86.9447 68.068 86.6087 68.14C86.2807 68.204 85.9847 68.296 85.7207 68.416V67.432C85.9607 67.32 86.2727 67.232 86.6567 67.168C87.0407 67.096 87.4127 67.06 87.7727 67.06C88.7247 67.06 89.4287 67.272 89.8847 67.696C90.3487 68.112 90.5807 68.692 90.5807 69.436V73H89.4407V72.352C89.1927 72.624 88.8967 72.832 88.5527 72.976C88.2167 73.112 87.8047 73.18 87.3167 73.18ZM87.6167 72.256C88.0007 72.256 88.3487 72.18 88.6607 72.028C88.9727 71.876 89.2047 71.664 89.3567 71.392V70.612C88.8367 70.276 88.2567 70.108 87.6167 70.108C87.1527 70.108 86.8047 70.2 86.5727 70.384C86.3487 70.56 86.2367 70.832 86.2367 71.2C86.2367 71.904 86.6967 72.256 87.6167 72.256ZM94.0329 73.18C93.6329 73.18 93.2089 73.128 92.7609 73.024C92.3129 72.928 91.9609 72.796 91.7049 72.628V71.596C92.0169 71.78 92.3769 71.932 92.7849 72.052C93.1929 72.164 93.5889 72.22 93.9729 72.22C94.4049 72.22 94.7209 72.168 94.9209 72.064C95.1209 71.96 95.2209 71.792 95.2209 71.56C95.2209 71.384 95.1729 71.244 95.0769 71.14C94.9889 71.028 94.8329 70.928 94.6089 70.84C94.3929 70.752 94.0649 70.648 93.6249 70.528C93.1529 70.392 92.7769 70.256 92.4969 70.12C92.2249 69.976 92.0169 69.796 91.8729 69.58C91.7369 69.364 91.6689 69.084 91.6689 68.74C91.6689 68.188 91.8849 67.772 92.3169 67.492C92.7569 67.204 93.3449 67.06 94.0809 67.06C94.4649 67.06 94.8409 67.096 95.2089 67.168C95.5769 67.24 95.8729 67.34 96.0969 67.468V68.476C95.8649 68.34 95.5769 68.232 95.2329 68.152C94.8969 68.072 94.5529 68.032 94.2009 68.032C93.7769 68.032 93.4529 68.084 93.2289 68.188C93.0049 68.292 92.8929 68.476 92.8929 68.74C92.8929 68.908 92.9409 69.044 93.0369 69.148C93.1329 69.252 93.2849 69.344 93.4929 69.424C93.7089 69.496 94.0489 69.592 94.5129 69.712C95.2409 69.912 95.7449 70.148 96.0249 70.42C96.3129 70.692 96.4569 71.068 96.4569 71.548C96.4569 72.044 96.2529 72.44 95.8449 72.736C95.4369 73.032 94.8329 73.18 94.0329 73.18ZM97.78 64.132H98.992V73H97.78V64.132ZM99.004 70.084L101.656 67.24H103.132L100.468 70.084L103.408 73H101.932L99.004 70.084Z" fill="#626262"/>
<path d="M139.733 64.612H141.005L142.877 70.984L144.725 64.612H145.685L147.521 70.984L149.393 64.612H150.665L148.217 73H147.053L145.193 66.664L143.345 73H142.181L139.733 64.612ZM153.147 73.18C152.451 73.18 151.891 73.004 151.467 72.652C151.051 72.292 150.843 71.808 150.843 71.2C150.843 70.56 151.043 70.068 151.443 69.724C151.851 69.372 152.427 69.196 153.171 69.196C153.963 69.196 154.635 69.356 155.187 69.676V69.376C155.187 68.92 155.047 68.584 154.767 68.368C154.495 68.144 154.063 68.032 153.471 68.032C153.119 68.032 152.775 68.068 152.439 68.14C152.111 68.204 151.815 68.296 151.551 68.416V67.432C151.791 67.32 152.103 67.232 152.487 67.168C152.871 67.096 153.243 67.06 153.603 67.06C154.555 67.06 155.259 67.272 155.715 67.696C156.179 68.112 156.411 68.692 156.411 69.436V73H155.271V72.352C155.023 72.624 154.727 72.832 154.383 72.976C154.047 73.112 153.635 73.18 153.147 73.18ZM153.447 72.256C153.831 72.256 154.179 72.18 154.491 72.028C154.803 71.876 155.035 71.664 155.187 71.392V70.612C154.667 70.276 154.087 70.108 153.447 70.108C152.983 70.108 152.635 70.2 152.403 70.384C152.179 70.56 152.067 70.832 152.067 71.2C152.067 71.904 152.527 72.256 153.447 72.256ZM159.863 73.18C159.463 73.18 159.039 73.128 158.591 73.024C158.143 72.928 157.791 72.796 157.535 72.628V71.596C157.847 71.78 158.207 71.932 158.615 72.052C159.023 72.164 159.419 72.22 159.803 72.22C160.235 72.22 160.551 72.168 160.751 72.064C160.951 71.96 161.051 71.792 161.051 71.56C161.051 71.384 161.003 71.244 160.907 71.14C160.819 71.028 160.663 70.928 160.439 70.84C160.223 70.752 159.895 70.648 159.455 70.528C158.983 70.392 158.607 70.256 158.327 70.12C158.055 69.976 157.847 69.796 157.703 69.58C157.567 69.364 157.499 69.084 157.499 68.74C157.499 68.188 157.715 67.772 158.147 67.492C158.587 67.204 159.175 67.06 159.911 67.06C160.295 67.06 160.671 67.096 161.039 67.168C161.407 67.24 161.703 67.34 161.927 67.468V68.476C161.695 68.34 161.407 68.232 161.063 68.152C160.727 68.072 160.383 68.032 160.031 68.032C159.607 68.032 159.283 68.084 159.059 68.188C158.835 68.292 158.723 68.476 158.723 68.74C158.723 68.908 158.771 69.044 158.867 69.148C158.963 69.252 159.115 69.344 159.323 69.424C159.539 69.496 159.879 69.592 160.343 69.712C161.071 69.912 161.575 70.148 161.855 70.42C162.143 70.692 162.287 71.068 162.287 71.548C162.287 72.044 162.083 72.44 161.675 72.736C161.267 73.032 160.663 73.18 159.863 73.18ZM163.61 64.132H164.822V68.032C165.374 67.384 166.11 67.06 167.03 67.06C167.798 67.06 168.37 67.264 168.746 67.672C169.122 68.08 169.31 68.628 169.31 69.316V73H168.098V69.436C168.098 68.5 167.65 68.032 166.754 68.032C166.37 68.032 166.01 68.124 165.674 68.308C165.346 68.484 165.062 68.756 164.822 69.124V73H163.61V64.132ZM175.247 64.612H176.471V68.212H180.851V64.612H182.075V73H180.851V69.244H176.471V73H175.247V64.612ZM185.701 73.18C185.005 73.18 184.445 73.004 184.021 72.652C183.605 72.292 183.397 71.808 183.397 71.2C183.397 70.56 183.597 70.068 183.997 69.724C184.405 69.372 184.981 69.196 185.725 69.196C186.517 69.196 187.189 69.356 187.741 69.676V69.376C187.741 68.92 187.601 68.584 187.321 68.368C187.049 68.144 186.617 68.032 186.025 68.032C185.673 68.032 185.329 68.068 184.993 68.14C184.665 68.204 184.369 68.296 184.105 68.416V67.432C184.345 67.32 184.657 67.232 185.041 67.168C185.425 67.096 185.797 67.06 186.157 67.06C187.109 67.06 187.813 67.272 188.269 67.696C188.733 68.112 188.965 68.692 188.965 69.436V73H187.825V72.352C187.577 72.624 187.281 72.832 186.937 72.976C186.601 73.112 186.189 73.18 185.701 73.18ZM186.001 72.256C186.385 72.256 186.733 72.18 187.045 72.028C187.357 71.876 187.589 71.664 187.741 71.392V70.612C187.221 70.276 186.641 70.108 186.001 70.108C185.537 70.108 185.189 70.2 184.957 70.384C184.733 70.56 184.621 70.832 184.621 71.2C184.621 71.904 185.081 72.256 186.001 72.256ZM190.469 67.24H191.645V68.068C191.917 67.724 192.249 67.472 192.641 67.312C193.041 67.144 193.457 67.06 193.889 67.06C194.657 67.06 195.229 67.264 195.605 67.672C195.981 68.08 196.169 68.628 196.169 69.316V73H194.957V69.436C194.957 68.5 194.509 68.032 193.613 68.032C193.229 68.032 192.869 68.124 192.533 68.308C192.205 68.484 191.921 68.756 191.681 69.124V73H190.469V67.24ZM200.449 73.18C199.873 73.18 199.353 73.056 198.889 72.808C198.433 72.552 198.073 72.196 197.809 71.74C197.553 71.276 197.425 70.74 197.425 70.132C197.425 69.532 197.553 69 197.809 68.536C198.073 68.072 198.433 67.712 198.889 67.456C199.353 67.192 199.873 67.06 200.449 67.06C201.489 67.06 202.277 67.376 202.813 68.008V64.132H204.025V73H202.849V72.16C202.529 72.512 202.177 72.772 201.793 72.94C201.417 73.1 200.969 73.18 200.449 73.18ZM200.725 72.22C201.221 72.22 201.653 72.092 202.021 71.836C202.397 71.572 202.661 71.22 202.813 70.78V69.484C202.677 69.044 202.417 68.692 202.033 68.428C201.657 68.164 201.221 68.032 200.725 68.032C200.333 68.032 199.977 68.12 199.657 68.296C199.345 68.472 199.097 68.72 198.913 69.04C198.737 69.36 198.649 69.724 198.649 70.132C198.649 70.54 198.737 70.904 198.913 71.224C199.097 71.544 199.345 71.792 199.657 71.968C199.977 72.136 200.333 72.22 200.725 72.22Z" fill="#626262"/>
<path d="M237.12 64.612H238.344V73H237.12V64.612ZM238.404 68.728L242.232 64.612H243.72L239.892 68.728L243.96 73H242.472L238.404 68.728ZM248.327 73.18C247.263 73.18 246.427 72.916 245.819 72.388C245.219 71.852 244.919 71.1 244.919 70.132C244.919 69.188 245.187 68.44 245.723 67.888C246.267 67.336 247.039 67.06 248.039 67.06C248.703 67.06 249.267 67.188 249.731 67.444C250.195 67.692 250.543 68.04 250.775 68.488C251.015 68.928 251.135 69.432 251.135 70V70.6H246.071C246.111 71.144 246.339 71.552 246.755 71.824C247.179 72.088 247.751 72.22 248.471 72.22C248.839 72.22 249.211 72.188 249.587 72.124C249.963 72.052 250.295 71.96 250.583 71.848V72.82C250.327 72.924 249.987 73.008 249.563 73.072C249.147 73.144 248.735 73.18 248.327 73.18ZM249.995 69.748C249.979 69.204 249.799 68.784 249.455 68.488C249.119 68.184 248.639 68.032 248.015 68.032C247.407 68.032 246.935 68.188 246.599 68.5C246.263 68.812 246.087 69.228 246.071 69.748H249.995ZM255.628 73.18C254.564 73.18 253.728 72.916 253.12 72.388C252.52 71.852 252.22 71.1 252.22 70.132C252.22 69.188 252.488 68.44 253.024 67.888C253.568 67.336 254.34 67.06 255.34 67.06C256.004 67.06 256.568 67.188 257.032 67.444C257.496 67.692 257.844 68.04 258.076 68.488C258.316 68.928 258.436 69.432 258.436 70V70.6H253.372C253.412 71.144 253.64 71.552 254.056 71.824C254.48 72.088 255.052 72.22 255.772 72.22C256.14 72.22 256.512 72.188 256.888 72.124C257.264 72.052 257.596 71.96 257.884 71.848V72.82C257.628 72.924 257.288 73.008 256.864 73.072C256.448 73.144 256.036 73.18 255.628 73.18ZM257.296 69.748C257.28 69.204 257.1 68.784 256.756 68.488C256.42 68.184 255.94 68.032 255.316 68.032C254.708 68.032 254.236 68.188 253.9 68.5C253.564 68.812 253.388 69.228 253.372 69.748H257.296ZM259.76 67.24H260.936V68.092C261.528 67.404 262.328 67.06 263.336 67.06C263.912 67.06 264.428 67.188 264.884 67.444C265.348 67.7 265.708 68.06 265.964 68.524C266.228 68.98 266.36 69.512 266.36 70.12C266.36 70.72 266.228 71.252 265.964 71.716C265.708 72.18 265.352 72.54 264.896 72.796C264.44 73.052 263.92 73.18 263.336 73.18C262.856 73.18 262.408 73.1 261.992 72.94C261.576 72.78 261.236 72.544 260.972 72.232V75.628H259.76V67.24ZM263.06 72.22C263.452 72.22 263.804 72.136 264.116 71.968C264.436 71.792 264.684 71.544 264.86 71.224C265.044 70.904 265.136 70.536 265.136 70.12C265.136 69.704 265.044 69.34 264.86 69.028C264.684 68.708 264.436 68.464 264.116 68.296C263.804 68.12 263.452 68.032 263.06 68.032C262.572 68.032 262.14 68.16 261.764 68.416C261.396 68.672 261.132 69.024 260.972 69.472V70.768C261.108 71.208 261.368 71.56 261.752 71.824C262.136 72.088 262.572 72.22 263.06 72.22ZM274.248 65.644H271.644V64.612H278.088V65.644H275.484V73H274.248V65.644ZM279.167 64.132H280.379V68.032C280.931 67.384 281.667 67.06 282.587 67.06C283.355 67.06 283.927 67.264 284.303 67.672C284.679 68.08 284.867 68.628 284.867 69.316V73H283.655V69.436C283.655 68.5 283.207 68.032 282.311 68.032C281.927 68.032 281.567 68.124 281.231 68.308C280.903 68.484 280.619 68.756 280.379 69.124V73H279.167V64.132ZM289.53 73.18C288.466 73.18 287.63 72.916 287.022 72.388C286.422 71.852 286.122 71.1 286.122 70.132C286.122 69.188 286.39 68.44 286.926 67.888C287.47 67.336 288.242 67.06 289.242 67.06C289.906 67.06 290.47 67.188 290.934 67.444C291.398 67.692 291.746 68.04 291.978 68.488C292.218 68.928 292.338 69.432 292.338 70V70.6H287.274C287.314 71.144 287.542 71.552 287.958 71.824C288.382 72.088 288.954 72.22 289.674 72.22C290.042 72.22 290.414 72.188 290.79 72.124C291.166 72.052 291.498 71.96 291.786 71.848V72.82C291.53 72.924 291.19 73.008 290.766 73.072C290.35 73.144 289.938 73.18 289.53 73.18ZM291.198 69.748C291.182 69.204 291.002 68.784 290.658 68.488C290.322 68.184 289.842 68.032 289.218 68.032C288.61 68.032 288.138 68.188 287.802 68.5C287.466 68.812 287.29 69.228 287.274 69.748H291.198ZM298.104 64.612H300.804C301.708 64.612 302.492 64.78 303.156 65.116C303.82 65.452 304.328 65.932 304.68 66.556C305.04 67.18 305.22 67.916 305.22 68.764C305.22 70.156 304.816 71.212 304.008 71.932C303.208 72.644 302.084 73 300.636 73H298.104V64.612ZM300.624 71.98C301.744 71.98 302.584 71.704 303.144 71.152C303.704 70.6 303.984 69.804 303.984 68.764C303.984 67.804 303.708 67.044 303.156 66.484C302.612 65.924 301.832 65.644 300.816 65.644H299.328V71.98H300.624ZM307.25 66.112C307.05 66.112 306.882 66.044 306.746 65.908C306.61 65.772 306.542 65.604 306.542 65.404C306.542 65.204 306.61 65.036 306.746 64.9C306.882 64.764 307.05 64.696 307.25 64.696C307.458 64.696 307.63 64.764 307.766 64.9C307.91 65.036 307.982 65.204 307.982 65.404C307.982 65.604 307.91 65.772 307.766 65.908C307.63 66.044 307.458 66.112 307.25 66.112ZM306.638 67.24H307.874V73H306.638V67.24ZM311.666 73.18C311.266 73.18 310.842 73.128 310.394 73.024C309.946 72.928 309.594 72.796 309.338 72.628V71.596C309.65 71.78 310.01 71.932 310.418 72.052C310.826 72.164 311.222 72.22 311.606 72.22C312.038 72.22 312.354 72.168 312.554 72.064C312.754 71.96 312.854 71.792 312.854 71.56C312.854 71.384 312.806 71.244 312.71 71.14C312.622 71.028 312.466 70.928 312.242 70.84C312.026 70.752 311.698 70.648 311.258 70.528C310.786 70.392 310.41 70.256 310.13 70.12C309.858 69.976 309.65 69.796 309.506 69.58C309.37 69.364 309.302 69.084 309.302 68.74C309.302 68.188 309.518 67.772 309.95 67.492C310.39 67.204 310.978 67.06 311.714 67.06C312.098 67.06 312.474 67.096 312.842 67.168C313.21 67.24 313.506 67.34 313.73 67.468V68.476C313.498 68.34 313.21 68.232 312.866 68.152C312.53 68.072 312.186 68.032 311.834 68.032C311.41 68.032 311.086 68.084 310.862 68.188C310.638 68.292 310.526 68.476 310.526 68.74C310.526 68.908 310.574 69.044 310.67 69.148C310.766 69.252 310.918 69.344 311.126 69.424C311.342 69.496 311.682 69.592 312.146 69.712C312.874 69.912 313.378 70.148 313.658 70.42C313.946 70.692 314.09 71.068 314.09 71.548C314.09 72.044 313.886 72.44 313.478 72.736C313.07 73.032 312.466 73.18 311.666 73.18ZM317.457 73.18C316.873 73.18 316.421 73.012 316.101 72.676C315.789 72.34 315.633 71.864 315.633 71.248V68.176H314.757V67.24H315.633V65.512H316.857V67.24H318.273V68.176H316.857V71.164C316.857 71.548 316.929 71.82 317.073 71.98C317.225 72.14 317.497 72.22 317.889 72.22C318.121 72.22 318.353 72.168 318.585 72.064V73.024C318.281 73.128 317.905 73.18 317.457 73.18ZM321.614 73.18C320.918 73.18 320.358 73.004 319.934 72.652C319.518 72.292 319.31 71.808 319.31 71.2C319.31 70.56 319.51 70.068 319.91 69.724C320.318 69.372 320.894 69.196 321.638 69.196C322.43 69.196 323.102 69.356 323.654 69.676V69.376C323.654 68.92 323.514 68.584 323.234 68.368C322.962 68.144 322.53 68.032 321.938 68.032C321.586 68.032 321.242 68.068 320.906 68.14C320.578 68.204 320.282 68.296 320.018 68.416V67.432C320.258 67.32 320.57 67.232 320.954 67.168C321.338 67.096 321.71 67.06 322.07 67.06C323.022 67.06 323.726 67.272 324.182 67.696C324.646 68.112 324.878 68.692 324.878 69.436V73H323.738V72.352C323.49 72.624 323.194 72.832 322.85 72.976C322.514 73.112 322.102 73.18 321.614 73.18ZM321.914 72.256C322.298 72.256 322.646 72.18 322.958 72.028C323.27 71.876 323.502 71.664 323.654 71.392V70.612C323.134 70.276 322.554 70.108 321.914 70.108C321.45 70.108 321.102 70.2 320.87 70.384C320.646 70.56 320.534 70.832 320.534 71.2C320.534 71.904 320.994 72.256 321.914 72.256ZM326.382 67.24H327.558V68.068C327.83 67.724 328.162 67.472 328.554 67.312C328.954 67.144 329.37 67.06 329.802 67.06C330.57 67.06 331.142 67.264 331.518 67.672C331.894 68.08 332.082 68.628 332.082 69.316V73H330.87V69.436C330.87 68.5 330.422 68.032 329.526 68.032C329.142 68.032 328.782 68.124 328.446 68.308C328.118 68.484 327.834 68.756 327.594 69.124V73H326.382V67.24ZM336.613 73.18C335.973 73.18 335.405 73.06 334.909 72.82C334.413 72.58 334.025 72.232 333.745 71.776C333.473 71.312 333.337 70.764 333.337 70.132C333.337 69.5 333.473 68.956 333.745 68.5C334.025 68.036 334.413 67.68 334.909 67.432C335.413 67.184 335.989 67.06 336.637 67.06C337.517 67.06 338.221 67.232 338.749 67.576V68.572C338.229 68.212 337.565 68.032 336.757 68.032C336.101 68.032 335.569 68.212 335.161 68.572C334.761 68.924 334.561 69.444 334.561 70.132C334.561 70.82 334.761 71.34 335.161 71.692C335.561 72.044 336.085 72.22 336.733 72.22C337.541 72.22 338.237 72.028 338.821 71.644V72.628C338.541 72.82 338.221 72.96 337.861 73.048C337.509 73.136 337.093 73.18 336.613 73.18ZM343.307 73.18C342.243 73.18 341.407 72.916 340.799 72.388C340.199 71.852 339.899 71.1 339.899 70.132C339.899 69.188 340.167 68.44 340.703 67.888C341.247 67.336 342.019 67.06 343.019 67.06C343.683 67.06 344.247 67.188 344.711 67.444C345.175 67.692 345.523 68.04 345.755 68.488C345.995 68.928 346.115 69.432 346.115 70V70.6H341.051C341.091 71.144 341.319 71.552 341.735 71.824C342.159 72.088 342.731 72.22 343.451 72.22C343.819 72.22 344.191 72.188 344.567 72.124C344.943 72.052 345.275 71.96 345.563 71.848V72.82C345.307 72.924 344.967 73.008 344.543 73.072C344.127 73.144 343.715 73.18 343.307 73.18ZM344.975 69.748C344.959 69.204 344.779 68.784 344.435 68.488C344.099 68.184 343.619 68.032 342.995 68.032C342.387 68.032 341.915 68.188 341.579 68.5C341.243 68.812 341.067 69.228 341.051 69.748H344.975Z" fill="#626262"/>
</svg>
